<svg width="411" height="104" viewBox="0 0 411 104" fill="none" xmlns="http://www.w3.org/2000/svg">
<path d="M92.6162 20.9713C96.8501 20.9713 100.282 24.5916 100.282 29.0574V33.8604C100.282 38.3262 103.715 41.9465 107.948 41.9465H112.738C116.972 41.9465 120.404 45.5668 120.404 50.0326V54.7336C120.404 59.1995 123.836 62.8197 128.07 62.8197H132.67C136.904 62.8197 140.336 66.44 140.336 70.9058V75.9597C140.336 80.4256 136.904 84.0459 132.67 84.0459H127.879C123.645 84.0459 120.213 80.4256 120.213 75.9597V71.2587C120.213 66.7929 116.78 63.1726 112.547 63.1726H107.947C103.713 63.1726 100.28 59.5523 100.28 55.0865V50.2836C100.28 45.8177 96.8483 42.1974 92.6144 42.1974H87.8249C83.591 42.1974 80.1588 38.5772 80.1588 34.1113V29.3122C80.1588 24.8464 76.7266 21.2261 72.4928 21.2261H67.7014C63.4675 21.2261 60.0353 24.8464 60.0353 29.3122V34.1114C60.0353 38.5772 56.6031 42.1974 52.3693 42.1974H47.5779C43.344 42.1974 39.9118 45.8177 39.9118 50.2836V55.0865C39.9118 59.5523 36.4796 63.1726 32.2458 63.1726H27.7895C23.5557 63.1726 20.1235 66.7929 20.1235 71.2587V75.9598C20.1235 80.4256 16.6913 84.0459 12.4574 84.0459H7.66606C3.43221 84.0459 3.94506e-07 80.4256 2.09439e-07 75.9598L0 70.9058C-1.85067e-07 66.44 3.43221 62.8197 7.66606 62.8197H12.1223C16.3561 62.8197 19.7883 59.1995 19.7883 54.7336V50.0326C19.7883 45.5668 23.2206 41.9465 27.4544 41.9465H32.2458C36.4796 41.9465 39.9118 38.3262 39.9118 33.8604V29.0574C39.9118 24.5916 43.344 20.9713 47.5779 20.9713H52.3693C56.6031 20.9713 60.0353 17.3511 60.0353 12.8852V8.0861C60.0353 3.62027 63.4675 4.16121e-07 67.7014 2.20913e-07L72.4928 0C76.7266 -1.95208e-07 80.1588 3.62027 80.1588 8.0861V12.8852C80.1588 17.3511 83.591 20.9713 87.8249 20.9713H92.6162Z" fill="white"/>
<path d="M92.6161 61.9025C96.85 61.9025 100.282 65.5228 100.282 69.9886V74.6878C100.282 79.1536 103.714 82.7739 107.948 82.7739H112.722C116.956 82.7739 120.388 86.3942 120.388 90.86V95.9139C120.388 100.38 116.956 104 112.722 104H107.931C103.697 104 100.265 100.38 100.265 95.9139V91.2148C100.265 86.7489 96.8325 83.1287 92.5986 83.1287H87.8248C83.5909 83.1287 80.1587 79.5084 80.1587 75.0426V70.2415C80.1587 65.7757 76.7265 62.1554 72.4926 62.1554H67.7013C63.4674 62.1554 60.0352 65.7757 60.0352 70.2415V75.0426C60.0352 79.5084 56.603 83.1287 52.3691 83.1287H47.9129C43.6791 83.1287 40.2469 86.7489 40.2469 91.2148V95.9139C40.2469 100.38 36.8146 104 32.5808 104H27.7894C23.5556 104 20.1234 100.38 20.1234 95.9139V90.86C20.1234 86.3942 23.5556 82.7739 27.7894 82.7739H32.2457C36.4795 82.7739 39.9117 79.1536 39.9117 74.6878V69.9887C39.9117 65.5228 43.3439 61.9025 47.5778 61.9025H52.3691C56.603 61.9025 60.0352 58.2823 60.0352 53.8164V49.0154C60.0352 44.5496 63.4674 40.9293 67.7013 40.9293H72.4926C76.7265 40.9293 80.1587 44.5496 80.1587 49.0154V53.8164C80.1587 58.2823 83.5909 61.9025 87.8248 61.9025H92.6161Z" fill="white"/>
<path d="M173.299 83.2L196.957 29.6881H207.106L230.626 83.2H220.958L214.443 68.5338H189.208L182.693 83.2H173.299ZM192.294 60.7382H211.7L202.168 38.871H201.825L192.294 60.7382Z" fill="white"/>
<path d="M236.485 83.2V27.7062H245.811V83.2H236.485Z" fill="white"/>
<path d="M267.833 83.2C265.319 83.2 263.353 82.5834 261.936 81.3502C260.564 80.117 259.878 78.2452 259.878 75.7348V50.5644H252.473V43.5616H259.947V31.67H269.136V43.5616H279.353V50.5644H269.205V76.1311H280.382V83.2H267.833Z" fill="white"/>
<path d="M304.165 83.9267C298.679 83.9267 294.405 82.4953 291.342 79.6325C288.325 76.7698 286.816 72.872 286.816 67.9392V43.5616H296.142V66.1555C296.142 69.4146 297.011 71.881 298.748 73.5546C300.485 75.1842 303.068 75.999 306.497 75.999C310.017 75.999 312.737 75.1182 314.657 73.3565C316.623 71.5947 317.606 69.1284 317.606 65.9573V43.5616H326.932V74.1492H331.663V83.2H321.994V76.9239H319.114C317.56 79.2141 315.571 80.9538 313.148 82.143C310.726 83.3321 307.731 83.9267 304.165 83.9267Z" fill="white"/>
<path d="M341.056 83.2V52.6123H336.324V43.5616H346.062V51.1589H348.942C350.039 48.5604 351.776 46.5785 354.153 45.2132C356.576 43.8478 359.342 43.1652 362.451 43.1652H365.88V50.8947H362.039C358.154 50.8947 355.205 51.9737 353.193 54.1318C351.228 56.2899 350.245 59.1747 350.245 62.7862V83.2H341.056Z" fill="white"/>
<path d="M383.913 83.9267C379.205 83.9267 375.479 82.8036 372.736 80.5574C370.039 78.3113 368.69 75.3604 368.69 71.7048C368.69 67.8731 370.061 64.9003 372.804 62.7862C375.547 60.6722 379.479 59.6151 384.599 59.6151H397.628V57.9635C397.628 52.6784 394.519 50.0358 388.302 50.0358C383.045 50.0358 379.89 51.8636 378.839 55.5192H369.513C370.29 51.4232 372.302 48.2741 375.547 46.072C378.839 43.8699 383.113 42.7688 388.371 42.7688C394.268 42.7688 398.771 44.0901 401.88 46.7326C404.988 49.3312 406.543 53.1188 406.543 58.0957V74.1492H411V83.2H401.331V76.9239H398.451C397.034 79.1261 395.114 80.8437 392.691 82.0769C390.268 83.3101 387.342 83.9267 383.913 83.9267ZM385.285 76.9239C387.616 76.9239 389.719 76.4835 391.594 75.6026C393.468 74.7218 394.931 73.5546 395.982 72.1012C397.08 70.6038 397.628 68.9522 397.628 67.1464V65.8912H385.079C380.05 65.8912 377.536 67.697 377.536 71.3085C377.536 73.0702 378.222 74.4575 379.593 75.4705C380.965 76.4394 382.862 76.9239 385.285 76.9239Z" fill="white"/>
</svg>
