<svg preserveAspectRatio="none" width="100%" height="100%" overflow="visible" style="display: block;" viewBox="0 0 69 52" fill="none" xmlns="http://www.w3.org/2000/svg">
<g id="Vector" filter="url(#filter0_ii_0_11)">
<path d="M45.5373 10.4857C47.619 10.4857 49.3065 12.2958 49.3065 14.5287V16.9302C49.3065 19.1631 50.994 20.9732 53.0757 20.9732H55.4306C57.5123 20.9732 59.1999 22.7834 59.1999 25.0163V27.3668C59.1999 29.5997 60.8874 31.4099 62.9691 31.4099H65.2308C67.3125 31.4099 69 33.22 69 35.4529V37.9799C69 40.2128 67.3125 42.0229 65.2308 42.0229H62.875C60.7933 42.0229 59.1057 40.2128 59.1057 37.9799V35.6294C59.1057 33.3964 57.4182 31.5863 55.3365 31.5863H53.0748C50.9931 31.5863 49.3056 29.7762 49.3056 27.5433V25.1418C49.3056 22.9089 47.6181 21.0987 45.5364 21.0987H43.1815C41.0998 21.0987 39.4122 19.2886 39.4122 17.0557V14.6561C39.4122 12.4232 37.7247 10.6131 35.643 10.6131H33.2872C31.2055 10.6131 29.518 12.4232 29.518 14.6561V17.0557C29.518 19.2886 27.8304 21.0987 25.7488 21.0987H23.393C21.3113 21.0987 19.6237 22.9089 19.6237 25.1418V27.5433C19.6237 29.7762 17.9362 31.5863 15.8545 31.5863H13.6635C11.5818 31.5863 9.89426 33.3964 9.89426 35.6294V37.9799C9.89426 40.2128 8.20672 42.0229 6.12503 42.0229H3.76922C1.68754 42.0229 1.9397e-07 40.2128 1.02976e-07 37.9799L0 35.4529C-9.09933e-08 33.22 1.68754 31.4099 3.76922 31.4099H5.96025C8.04194 31.4099 9.72947 29.5997 9.72947 27.3668V25.0163C9.72947 22.7834 11.417 20.9732 13.4987 20.9732H15.8545C17.9362 20.9732 19.6237 19.1631 19.6237 16.9302V14.5287C19.6237 12.2958 21.3113 10.4857 23.393 10.4857H25.7488C27.8304 10.4857 29.518 8.67553 29.518 6.44262V4.04305C29.518 1.81014 31.2055 2.0806e-07 33.2872 1.10457e-07L35.643 0C37.7247 -9.76038e-08 39.4122 1.81014 39.4122 4.04305V6.44262C39.4122 8.67553 41.0998 10.4857 43.1815 10.4857H45.5373Z" fill="white" fill-opacity="0.24"/>
<path d="M45.5373 10.4857C47.619 10.4857 49.3065 12.2958 49.3065 14.5287V16.9302C49.3065 19.1631 50.994 20.9732 53.0757 20.9732H55.4306C57.5123 20.9732 59.1999 22.7834 59.1999 25.0163V27.3668C59.1999 29.5997 60.8874 31.4099 62.9691 31.4099H65.2308C67.3125 31.4099 69 33.22 69 35.4529V37.9799C69 40.2128 67.3125 42.0229 65.2308 42.0229H62.875C60.7933 42.0229 59.1057 40.2128 59.1057 37.9799V35.6294C59.1057 33.3964 57.4182 31.5863 55.3365 31.5863H53.0748C50.9931 31.5863 49.3056 29.7762 49.3056 27.5433V25.1418C49.3056 22.9089 47.6181 21.0987 45.5364 21.0987H43.1815C41.0998 21.0987 39.4122 19.2886 39.4122 17.0557V14.6561C39.4122 12.4232 37.7247 10.6131 35.643 10.6131H33.2872C31.2055 10.6131 29.518 12.4232 29.518 14.6561V17.0557C29.518 19.2886 27.8304 21.0987 25.7488 21.0987H23.393C21.3113 21.0987 19.6237 22.9089 19.6237 25.1418V27.5433C19.6237 29.7762 17.9362 31.5863 15.8545 31.5863H13.6635C11.5818 31.5863 9.89426 33.3964 9.89426 35.6294V37.9799C9.89426 40.2128 8.20672 42.0229 6.12503 42.0229H3.76922C1.68754 42.0229 1.9397e-07 40.2128 1.02976e-07 37.9799L0 35.4529C-9.09933e-08 33.22 1.68754 31.4099 3.76922 31.4099H5.96025C8.04194 31.4099 9.72947 29.5997 9.72947 27.3668V25.0163C9.72947 22.7834 11.417 20.9732 13.4987 20.9732H15.8545C17.9362 20.9732 19.6237 19.1631 19.6237 16.9302V14.5287C19.6237 12.2958 21.3113 10.4857 23.393 10.4857H25.7488C27.8304 10.4857 29.518 8.67553 29.518 6.44262V4.04305C29.518 1.81014 31.2055 2.0806e-07 33.2872 1.10457e-07L35.643 0C37.7247 -9.76038e-08 39.4122 1.81014 39.4122 4.04305V6.44262C39.4122 8.67553 41.0998 10.4857 43.1815 10.4857H45.5373Z" fill="url(#paint0_linear_0_11)" fill-opacity="0.66"/>
<path d="M45.5372 30.9513C47.6189 30.9513 49.3064 32.7614 49.3064 34.9943V37.3439C49.3064 39.5768 50.994 41.3869 53.0757 41.3869H55.4229C57.5045 41.3869 59.1921 43.1971 59.1921 45.43V47.9569C59.1921 50.1899 57.5045 52 55.4229 52H53.0671C50.9854 52 49.2978 50.1899 49.2978 47.9569V45.6074C49.2978 43.3745 47.6103 41.5643 45.5286 41.5643H43.1814C41.0997 41.5643 39.4122 39.7542 39.4122 37.5213V35.1208C39.4122 32.8878 37.7246 31.0777 35.643 31.0777H33.2871C31.2055 31.0777 29.5179 32.8878 29.5179 35.1208V37.5213C29.5179 39.7542 27.8304 41.5643 25.7487 41.5643H23.5577C21.476 41.5643 19.7885 43.3745 19.7885 45.6074V47.9569C19.7885 50.1899 18.1009 52 16.0192 52H13.6634C11.5817 52 9.8942 50.1899 9.8942 47.9569V45.43C9.8942 43.1971 11.5817 41.3869 13.6634 41.3869H15.8544C17.9361 41.3869 19.6237 39.5768 19.6237 37.3439V34.9943C19.6237 32.7614 21.3112 30.9513 23.3929 30.9513H25.7487C27.8304 30.9513 29.5179 29.1411 29.5179 26.9082V24.5077C29.5179 22.2748 31.2055 20.4647 33.2871 20.4647H35.643C37.7246 20.4647 39.4122 22.2748 39.4122 24.5077V26.9082C39.4122 29.1411 41.0997 30.9513 43.1814 30.9513H45.5372Z" fill="white" fill-opacity="0.24"/>
<path d="M45.5372 30.9513C47.6189 30.9513 49.3064 32.7614 49.3064 34.9943V37.3439C49.3064 39.5768 50.994 41.3869 53.0757 41.3869H55.4229C57.5045 41.3869 59.1921 43.1971 59.1921 45.43V47.9569C59.1921 50.1899 57.5045 52 55.4229 52H53.0671C50.9854 52 49.2978 50.1899 49.2978 47.9569V45.6074C49.2978 43.3745 47.6103 41.5643 45.5286 41.5643H43.1814C41.0997 41.5643 39.4122 39.7542 39.4122 37.5213V35.1208C39.4122 32.8878 37.7246 31.0777 35.643 31.0777H33.2871C31.2055 31.0777 29.5179 32.8878 29.5179 35.1208V37.5213C29.5179 39.7542 27.8304 41.5643 25.7487 41.5643H23.5577C21.476 41.5643 19.7885 43.3745 19.7885 45.6074V47.9569C19.7885 50.1899 18.1009 52 16.0192 52H13.6634C11.5817 52 9.8942 50.1899 9.8942 47.9569V45.43C9.8942 43.1971 11.5817 41.3869 13.6634 41.3869H15.8544C17.9361 41.3869 19.6237 39.5768 19.6237 37.3439V34.9943C19.6237 32.7614 21.3112 30.9513 23.3929 30.9513H25.7487C27.8304 30.9513 29.5179 29.1411 29.5179 26.9082V24.5077C29.5179 22.2748 31.2055 20.4647 33.2871 20.4647H35.643C37.7246 20.4647 39.4122 22.2748 39.4122 24.5077V26.9082C39.4122 29.1411 41.0997 30.9513 43.1814 30.9513H45.5372Z" fill="url(#paint1_linear_0_11)" fill-opacity="0.66"/>
</g>
<defs>
<filter id="filter0_ii_0_11" x="0" y="0" width="69" height="52" filterUnits="userSpaceOnUse" color-interpolation-filters="sRGB">
<feFlood flood-opacity="0" result="BackgroundImageFix"/>
<feBlend mode="normal" in="SourceGraphic" in2="BackgroundImageFix" result="shape"/>
<feColorMatrix in="SourceAlpha" type="matrix" values="0 0 0 0 0 0 0 0 0 0 0 0 0 0 0 0 0 0 127 0" result="hardAlpha"/>
<feOffset dy="1"/>
<feComposite in2="hardAlpha" operator="arithmetic" k2="-1" k3="1"/>
<feColorMatrix type="matrix" values="0 0 0 0 0 0 0 0 0 0 0 0 0 0 0 0 0 0 0.45 0"/>
<feBlend mode="normal" in2="shape" result="effect1_innerShadow_0_11"/>
<feColorMatrix in="SourceAlpha" type="matrix" values="0 0 0 0 0 0 0 0 0 0 0 0 0 0 0 0 0 0 127 0" result="hardAlpha"/>
<feOffset dy="-1"/>
<feComposite in2="hardAlpha" operator="arithmetic" k2="-1" k3="1"/>
<feColorMatrix type="matrix" values="0 0 0 0 1 0 0 0 0 1 0 0 0 0 1 0 0 0 1 0"/>
<feBlend mode="normal" in2="effect1_innerShadow_0_11" result="effect2_innerShadow_0_11"/>
</filter>
<linearGradient id="paint0_linear_0_11" x1="217.304" y1="-10.6786" x2="-6.71622" y2="60.0067" gradientUnits="userSpaceOnUse">
<stop stop-opacity="0"/>
<stop offset="0.179816"/>
<stop offset="0.277643" stop-opacity="0"/>
<stop offset="0.354289"/>
<stop offset="0.519606" stop-opacity="0"/>
<stop offset="0.637584"/>
<stop offset="0.847892" stop-opacity="0"/>
<stop offset="1" stop-opacity="0.876389"/>
</linearGradient>
<linearGradient id="paint1_linear_0_11" x1="217.304" y1="-10.6786" x2="-6.71622" y2="60.0067" gradientUnits="userSpaceOnUse">
<stop stop-opacity="0"/>
<stop offset="0.179816"/>
<stop offset="0.277643" stop-opacity="0"/>
<stop offset="0.354289"/>
<stop offset="0.519606" stop-opacity="0"/>
<stop offset="0.637584"/>
<stop offset="0.847892" stop-opacity="0"/>
<stop offset="1" stop-opacity="0.876389"/>
</linearGradient>
</defs>
</svg>
