<svg preserveAspectRatio="none" width="100%" height="100%" overflow="visible" style="display: block;" viewBox="0 0 507 355" fill="none" xmlns="http://www.w3.org/2000/svg">
<g id="Vector" opacity="0.2" filter="url(#filter0_i_0_20)" style="mix-blend-mode:plus-lighter">
<path d="M402.483 290.38C408.771 291.27 413.656 294.354 416.503 298.831C419.63 303.75 420.224 310.234 417.69 317.075L412.126 332.088C409.595 338.92 404.407 344.868 398.097 348.984C391.786 353.1 384.291 355.427 377.096 354.935L361.301 353.854C354.094 353.361 348.506 350.125 345.378 345.205C343.595 342.401 342.636 339.087 342.61 335.489C343.166 335.592 343.734 335.677 344.315 335.742C344.384 338.944 345.262 341.851 346.814 344.292C349.611 348.691 354.668 351.696 361.417 352.158L377.212 353.238C383.974 353.7 391.109 351.512 397.167 347.56C403.225 343.608 408.146 337.932 410.531 331.498L416.094 316.485C418.474 310.06 417.864 304.145 415.067 299.744C412.56 295.802 408.238 292.979 402.509 292.104C402.525 291.521 402.517 290.946 402.483 290.38Z" fill="black"/>
<path d="M402.483 290.38C408.771 291.27 413.656 294.354 416.503 298.831C419.63 303.75 420.224 310.234 417.69 317.075L412.126 332.088C409.595 338.92 404.407 344.868 398.097 348.984C391.786 353.1 384.291 355.427 377.096 354.935L361.301 353.854C354.094 353.361 348.506 350.125 345.378 345.205C343.595 342.401 342.636 339.087 342.61 335.489C343.166 335.592 343.734 335.677 344.315 335.742C344.384 338.944 345.262 341.851 346.814 344.292C349.611 348.691 354.668 351.696 361.417 352.158L377.212 353.238C383.974 353.7 391.109 351.512 397.167 347.56C403.225 343.608 408.146 337.932 410.531 331.498L416.094 316.485C418.474 310.06 417.864 304.145 415.067 299.744C412.56 295.802 408.238 292.979 402.509 292.104C402.525 291.521 402.517 290.946 402.483 290.38Z" fill="url(#paint0_linear_0_20)" fill-opacity="0.66"/>
<path d="M269.915 220.586C264.675 221.15 259.418 223.138 254.788 226.158C248.73 230.11 243.809 235.787 241.424 242.221L236.139 256.484C233.608 263.315 228.42 269.263 222.109 273.379C215.799 277.496 208.304 279.821 201.109 279.329L186.418 278.325C179.656 277.862 172.522 280.051 166.464 284.002C160.406 287.954 155.485 293.631 153.1 300.066L147.926 314.024L147.928 314.025C145.396 320.856 140.208 326.804 133.898 330.921C127.588 335.037 120.092 337.362 112.897 336.87L97.101 335.791C89.8936 335.298 84.306 332.061 81.1776 327.141C79.395 324.337 78.4361 321.024 78.4103 317.426C78.9662 317.529 79.5347 317.614 80.1159 317.679C80.1845 320.881 81.062 323.788 82.6139 326.229C85.4106 330.628 90.4676 333.633 97.2171 334.095L113.013 335.174C119.775 335.636 126.909 333.448 132.967 329.497C139.025 325.545 143.946 319.868 146.331 313.433L151.504 299.474C154.036 292.643 159.223 286.694 165.533 282.578C171.843 278.462 179.339 276.137 186.534 276.628L201.225 277.633C207.987 278.095 215.122 275.907 221.18 271.955C227.237 268.003 232.159 262.327 234.544 255.893L239.829 241.63C242.36 234.799 247.548 228.85 253.858 224.734C258.922 221.431 264.748 219.283 270.57 218.817L269.915 220.586Z" fill="black"/>
<path d="M269.915 220.586C264.675 221.15 259.418 223.138 254.788 226.158C248.73 230.11 243.809 235.787 241.424 242.221L236.139 256.484C233.608 263.315 228.42 269.263 222.109 273.379C215.799 277.496 208.304 279.821 201.109 279.329L186.418 278.325C179.656 277.862 172.522 280.051 166.464 284.002C160.406 287.954 155.485 293.631 153.1 300.066L147.926 314.024L147.928 314.025C145.396 320.856 140.208 326.804 133.898 330.921C127.588 335.037 120.092 337.362 112.897 336.87L97.101 335.791C89.8936 335.298 84.306 332.061 81.1776 327.141C79.395 324.337 78.4361 321.024 78.4103 317.426C78.9662 317.529 79.5347 317.614 80.1159 317.679C80.1845 320.881 81.062 323.788 82.6139 326.229C85.4106 330.628 90.4676 333.633 97.2171 334.095L113.013 335.174C119.775 335.636 126.909 333.448 132.967 329.497C139.025 325.545 143.946 319.868 146.331 313.433L151.504 299.474C154.036 292.643 159.223 286.694 165.533 282.578C171.843 278.462 179.339 276.137 186.534 276.628L201.225 277.633C207.987 278.095 215.122 275.907 221.18 271.955C227.237 268.003 232.159 262.327 234.544 255.893L239.829 241.63C242.36 234.799 247.548 228.85 253.858 224.734C258.922 221.431 264.748 219.283 270.57 218.817L269.915 220.586Z" fill="url(#paint1_linear_0_20)" fill-opacity="0.66"/>
<path d="M490.211 235.6C496.5 236.49 501.384 239.573 504.231 244.051C507.358 248.969 507.953 255.454 505.418 262.295L499.855 277.308C497.323 284.139 492.135 290.087 485.825 294.204C479.515 298.32 472.019 300.645 464.824 300.153L449.029 299.074C441.822 298.581 436.234 295.344 433.106 290.424C431.323 287.619 430.365 284.306 430.339 280.709C430.894 280.811 431.462 280.897 432.043 280.962C432.112 284.164 432.99 287.071 434.542 289.512C437.339 293.91 442.396 296.916 449.146 297.377L464.94 298.457C471.703 298.919 478.837 296.731 484.895 292.779C490.953 288.828 495.874 283.151 498.259 276.716L503.822 261.703C506.203 255.278 505.593 249.363 502.795 244.963C500.289 241.021 495.966 238.199 490.237 237.323C490.254 236.741 490.245 236.166 490.211 235.6Z" fill="black"/>
<path d="M490.211 235.6C496.5 236.49 501.384 239.573 504.231 244.051C507.358 248.969 507.953 255.454 505.418 262.295L499.855 277.308C497.323 284.139 492.135 290.087 485.825 294.204C479.515 298.32 472.019 300.645 464.824 300.153L449.029 299.074C441.822 298.581 436.234 295.344 433.106 290.424C431.323 287.619 430.365 284.306 430.339 280.709C430.894 280.811 431.462 280.897 432.043 280.962C432.112 284.164 432.99 287.071 434.542 289.512C437.339 293.91 442.396 296.916 449.146 297.377L464.94 298.457C471.703 298.919 478.837 296.731 484.895 292.779C490.953 288.828 495.874 283.151 498.259 276.716L503.822 261.703C506.203 255.278 505.593 249.363 502.795 244.963C500.289 241.021 495.966 238.199 490.237 237.323C490.254 236.741 490.245 236.166 490.211 235.6Z" fill="url(#paint2_linear_0_20)" fill-opacity="0.66"/>
<path d="M299.303 268.956C299.859 269.058 300.428 269.143 301.009 269.209C301.078 272.41 301.955 275.318 303.507 277.759C305.705 281.215 309.298 283.809 314.011 284.987L313.416 286.59C308.413 285.297 304.5 282.493 302.071 278.672C300.288 275.867 299.33 272.554 299.303 268.956Z" fill="black"/>
<path d="M299.303 268.956C299.859 269.058 300.428 269.143 301.009 269.209C301.078 272.41 301.955 275.318 303.507 277.759C305.705 281.215 309.298 283.809 314.011 284.987L313.416 286.59C308.413 285.297 304.5 282.493 302.071 278.672C300.288 275.867 299.33 272.554 299.303 268.956Z" fill="url(#paint3_linear_0_20)" fill-opacity="0.66"/>
<path d="M164.401 260.579C162.037 263.343 159.233 265.785 156.159 267.79C151.787 270.642 146.845 272.633 141.829 273.424C142.437 272.7 143.077 271.997 143.745 271.319C147.748 270.394 151.675 268.684 155.23 266.365C157.549 264.852 159.7 263.084 161.608 261.12C162.535 260.898 163.467 260.717 164.401 260.579Z" fill="black"/>
<path d="M164.401 260.579C162.037 263.343 159.233 265.785 156.159 267.79C151.787 270.642 146.845 272.633 141.829 273.424C142.437 272.7 143.077 271.997 143.745 271.319C147.748 270.394 151.675 268.684 155.23 266.365C157.549 264.852 159.7 263.084 161.608 261.12C162.535 260.898 163.467 260.717 164.401 260.579Z" fill="url(#paint4_linear_0_20)" fill-opacity="0.66"/>
<path d="M34.0368 253.613C34.5928 253.715 35.1612 253.802 35.7425 253.867C35.8112 257.068 36.6888 259.975 38.2404 262.416C40.4463 265.885 44.0588 268.486 48.7983 269.657L48.2038 271.263C43.1749 269.976 39.2426 267.164 36.8042 263.329C35.0214 260.524 34.0626 257.211 34.0368 253.613Z" fill="black"/>
<path d="M34.0368 253.613C34.5928 253.715 35.1612 253.802 35.7425 253.867C35.8112 257.068 36.6888 259.975 38.2404 262.416C40.4463 265.885 44.0588 268.486 48.7983 269.657L48.2038 271.263C43.1749 269.976 39.2426 267.164 36.8042 263.329C35.0214 260.524 34.0626 257.211 34.0368 253.613Z" fill="url(#paint5_linear_0_20)" fill-opacity="0.66"/>
<path d="M359.178 223.848C365.465 224.738 370.349 227.82 373.196 232.298C376.323 237.216 376.919 243.701 374.384 250.542L371.647 257.924C371.109 257.765 370.556 257.624 369.989 257.503L372.788 249.951C375.169 243.526 374.557 237.611 371.76 233.211C369.254 229.269 364.932 226.446 359.203 225.57C359.22 224.988 359.211 224.414 359.178 223.848Z" fill="black"/>
<path d="M359.178 223.848C365.465 224.738 370.349 227.82 373.196 232.298C376.323 237.216 376.919 243.701 374.384 250.542L371.647 257.924C371.109 257.765 370.556 257.624 369.989 257.503L372.788 249.951C375.169 243.526 374.557 237.611 371.76 233.211C369.254 229.269 364.932 226.446 359.203 225.57C359.22 224.988 359.211 224.414 359.178 223.848Z" fill="url(#paint6_linear_0_20)" fill-opacity="0.66"/>
<path d="M136.029 214.763C131.187 215.482 126.372 217.393 122.093 220.184C116.035 224.136 111.114 229.813 108.729 236.247L107.881 238.531C107.245 238.636 106.609 238.721 105.972 238.786L107.132 235.656C109.664 228.824 114.852 222.876 121.162 218.76C125.885 215.679 131.271 213.601 136.699 212.957L136.029 214.763Z" fill="black"/>
<path d="M136.029 214.763C131.187 215.482 126.372 217.393 122.093 220.184C116.035 224.136 111.114 229.813 108.729 236.247L107.881 238.531C107.245 238.636 106.609 238.721 105.972 238.786L107.132 235.656C109.664 228.824 114.852 222.876 121.162 218.76C125.885 215.679 131.271 213.601 136.699 212.957L136.029 214.763Z" fill="url(#paint7_linear_0_20)" fill-opacity="0.66"/>
<path d="M387.608 214.209C388.163 214.311 388.732 214.396 389.312 214.462C389.381 217.663 390.26 220.571 391.811 223.012C393.925 226.336 397.329 228.863 401.779 230.099L401.187 231.699C396.439 230.348 392.718 227.609 390.375 223.925C388.592 221.12 387.634 217.807 387.608 214.209Z" fill="black"/>
<path d="M387.608 214.209C388.163 214.311 388.732 214.396 389.312 214.462C389.381 217.663 390.26 220.571 391.811 223.012C393.925 226.336 397.329 228.863 401.779 230.099L401.187 231.699C396.439 230.348 392.718 227.609 390.375 223.925C388.592 221.12 387.634 217.807 387.608 214.209Z" fill="url(#paint8_linear_0_20)" fill-opacity="0.66"/>
<path d="M254.186 202.554C251.729 205.549 248.756 208.185 245.477 210.323C240.68 213.453 235.197 215.546 229.682 216.154C230.223 215.482 230.79 214.828 231.382 214.193C235.962 213.393 240.495 211.542 244.546 208.899C247.153 207.199 249.547 205.178 251.621 202.916C252.475 202.759 253.33 202.639 254.186 202.554Z" fill="black"/>
<path d="M254.186 202.554C251.729 205.549 248.756 208.185 245.477 210.323C240.68 213.453 235.197 215.546 229.682 216.154C230.223 215.482 230.79 214.828 231.382 214.193C235.962 213.393 240.495 211.542 244.546 208.899C247.153 207.199 249.547 205.178 251.621 202.916C252.475 202.759 253.33 202.639 254.186 202.554Z" fill="url(#paint9_linear_0_20)" fill-opacity="0.66"/>
<path d="M120.034 196.761C117.669 199.528 114.862 201.971 111.786 203.977C107.413 206.83 102.47 208.82 97.4532 209.611C98.0604 208.887 98.6997 208.186 99.3665 207.508C103.372 206.583 107.3 204.873 110.856 202.553C113.179 201.038 115.333 199.267 117.243 197.299C118.169 197.078 119.101 196.898 120.034 196.761Z" fill="black"/>
<path d="M120.034 196.761C117.669 199.528 114.862 201.971 111.786 203.977C107.413 206.83 102.47 208.82 97.4532 209.611C98.0604 208.887 98.6997 208.186 99.3665 207.508C103.372 206.583 107.3 204.873 110.856 202.553C113.179 201.038 115.333 199.267 117.243 197.299C118.169 197.078 119.101 196.898 120.034 196.761Z" fill="url(#paint10_linear_0_20)" fill-opacity="0.66"/>
<path d="M447.481 169.1C453.768 169.99 458.652 173.073 461.499 177.551C464.626 182.469 465.222 188.954 462.687 195.794L459.902 203.307C459.369 203.134 458.821 202.98 458.259 202.845L461.091 195.204C463.472 188.779 462.861 182.864 460.063 178.464C457.557 174.522 453.235 171.699 447.507 170.823C447.523 170.24 447.514 169.666 447.481 169.1Z" fill="black"/>
<path d="M447.481 169.1C453.768 169.99 458.652 173.073 461.499 177.551C464.626 182.469 465.222 188.954 462.687 195.794L459.902 203.307C459.369 203.134 458.821 202.98 458.259 202.845L461.091 195.204C463.472 188.779 462.861 182.864 460.063 178.464C457.557 174.522 453.235 171.699 447.507 170.823C447.523 170.24 447.514 169.666 447.481 169.1Z" fill="url(#paint11_linear_0_20)" fill-opacity="0.66"/>
<path d="M315.925 157.007C322.213 157.897 327.097 160.98 329.944 165.458C333.071 170.376 333.666 176.861 331.132 183.702L328.288 191.374C327.749 191.216 327.195 191.077 326.628 190.957L329.536 183.111C331.917 176.686 331.305 170.771 328.508 166.371C326.001 162.429 321.68 159.606 315.951 158.73C315.967 158.148 315.959 157.573 315.925 157.007Z" fill="black"/>
<path d="M315.925 157.007C322.213 157.897 327.097 160.98 329.944 165.458C333.071 170.376 333.666 176.861 331.132 183.702L328.288 191.374C327.749 191.216 327.195 191.077 326.628 190.957L329.536 183.111C331.917 176.686 331.305 170.771 328.508 166.371C326.001 162.429 321.68 159.606 315.951 158.73C315.967 158.148 315.959 157.573 315.925 157.007Z" fill="url(#paint12_linear_0_20)" fill-opacity="0.66"/>
<path d="M225.544 156.762C220.305 157.327 215.047 159.315 210.418 162.335C204.361 166.287 199.439 171.963 197.055 178.397L196 181.24C195.374 181.318 194.747 181.376 194.12 181.415L195.459 177.807C197.991 170.975 203.178 165.027 209.489 160.911C214.552 157.608 220.378 155.459 226.199 154.992L225.544 156.762Z" fill="black"/>
<path d="M225.544 156.762C220.305 157.327 215.047 159.315 210.418 162.335C204.361 166.287 199.439 171.963 197.055 178.397L196 181.24C195.374 181.318 194.747 181.376 194.12 181.415L195.459 177.807C197.991 170.975 203.178 165.027 209.489 160.911C214.552 157.608 220.378 155.459 226.199 154.992L225.544 156.762Z" fill="url(#paint13_linear_0_20)" fill-opacity="0.66"/>
<path d="M344.364 147.364C344.92 147.466 345.488 147.552 346.069 147.617C346.138 150.819 347.016 153.726 348.568 156.167C350.773 159.635 354.383 162.236 359.119 163.407L358.525 165.012C353.499 163.724 349.569 160.912 347.132 157.079C345.349 154.274 344.39 150.961 344.364 147.364Z" fill="black"/>
<path d="M344.364 147.364C344.92 147.466 345.488 147.552 346.069 147.617C346.138 150.819 347.016 153.726 348.568 156.167C350.773 159.635 354.383 162.236 359.119 163.407L358.525 165.012C353.499 163.724 349.569 160.912 347.132 157.079C345.349 154.274 344.39 150.961 344.364 147.364Z" fill="url(#paint14_linear_0_20)" fill-opacity="0.66"/>
<path d="M209.821 138.73C207.363 141.728 204.386 144.365 201.105 146.505C196.307 149.635 190.824 151.728 185.309 152.336C185.849 151.664 186.416 151.01 187.007 150.376C191.589 149.576 196.123 147.724 200.175 145.081C202.784 143.379 205.18 141.356 207.255 139.092C208.109 138.935 208.965 138.814 209.821 138.73Z" fill="black"/>
<path d="M209.821 138.73C207.363 141.728 204.386 144.365 201.105 146.505C196.307 149.635 190.824 151.728 185.309 152.336C185.849 151.664 186.416 151.01 187.007 150.376C191.589 149.576 196.123 147.724 200.175 145.081C202.784 143.379 205.18 141.356 207.255 139.092C208.109 138.935 208.965 138.814 209.821 138.73Z" fill="url(#paint15_linear_0_20)" fill-opacity="0.66"/>
<path d="M404.237 102.255C410.525 103.145 415.409 106.228 418.256 110.706C421.382 115.624 421.978 122.108 419.443 128.948L416.597 136.629C416.058 136.47 415.504 136.331 414.937 136.211L417.848 128.358C420.228 121.933 419.617 116.018 416.819 111.618C414.313 107.676 409.991 104.854 404.263 103.978C404.279 103.396 404.271 102.821 404.237 102.255Z" fill="black"/>
<path d="M404.237 102.255C410.525 103.145 415.409 106.228 418.256 110.706C421.382 115.624 421.978 122.108 419.443 128.948L416.597 136.629C416.058 136.47 415.504 136.331 414.937 136.211L417.848 128.358C420.228 121.933 419.617 116.018 416.819 111.618C414.313 107.676 409.991 104.854 404.263 103.978C404.279 103.396 404.271 102.821 404.237 102.255Z" fill="url(#paint16_linear_0_20)" fill-opacity="0.66"/>
<path d="M314.972 98.9986C309.733 99.5629 304.475 101.552 299.846 104.571C293.788 108.523 288.867 114.2 286.483 120.635L285.036 124.535C284.498 124.376 283.944 124.237 283.376 124.117L284.887 120.044C287.419 113.213 292.605 107.263 298.915 103.147C303.979 99.844 309.805 97.6959 315.627 97.2295L314.972 98.9986Z" fill="black"/>
<path d="M314.972 98.9986C309.733 99.5629 304.475 101.552 299.846 104.571C293.788 108.523 288.867 114.2 286.483 120.635L285.036 124.535C284.498 124.376 283.944 124.237 283.376 124.117L284.887 120.044C287.419 113.213 292.605 107.263 298.915 103.147C303.979 99.844 309.805 97.6959 315.627 97.2295L314.972 98.9986Z" fill="url(#paint17_linear_0_20)" fill-opacity="0.66"/>
<path d="M299.243 80.9674C296.786 83.9602 293.814 86.5937 290.537 88.7316C285.74 91.8603 280.259 93.9513 274.746 94.5599C275.286 93.8883 275.853 93.2351 276.445 92.6007C281.024 91.8003 285.556 89.9492 289.606 87.3072C292.21 85.6083 294.603 83.589 296.676 81.3293C297.53 81.1722 298.387 81.052 299.243 80.9674Z" fill="black"/>
<path d="M299.243 80.9674C296.786 83.9602 293.814 86.5937 290.537 88.7316C285.74 91.8603 280.259 93.9513 274.746 94.5599C275.286 93.8883 275.853 93.2351 276.445 92.6007C281.024 91.8003 285.556 89.9492 289.606 87.3072C292.21 85.6083 294.603 83.589 296.676 81.3293C297.53 81.1722 298.387 81.052 299.243 80.9674Z" fill="url(#paint18_linear_0_20)" fill-opacity="0.66"/>
<path d="M360.983 35.42C367.271 36.31 372.155 39.3935 375.002 43.871C378.129 48.7895 378.725 55.2739 376.19 62.1147L373.347 69.7825C372.808 69.6244 372.255 69.4839 371.687 69.3637L374.594 61.5242C376.975 55.0994 376.363 49.1844 373.566 44.7839C371.059 40.842 366.738 38.0192 361.009 37.1433C361.026 36.5606 361.017 35.986 360.983 35.42Z" fill="black"/>
<path d="M360.983 35.42C367.271 36.31 372.155 39.3935 375.002 43.871C378.129 48.7895 378.725 55.2739 376.19 62.1147L373.347 69.7825C372.808 69.6244 372.255 69.4839 371.687 69.3637L374.594 61.5242C376.975 55.0994 376.363 49.1844 373.566 44.7839C371.059 40.842 366.738 38.0192 361.009 37.1433C361.026 36.5606 361.017 35.986 360.983 35.42Z" fill="url(#paint19_linear_0_20)" fill-opacity="0.66"/>
<path d="M384.332 273.178C391.168 273.842 396.469 277.02 399.485 281.764C402.612 286.682 403.206 293.166 400.671 300.007L395.108 315.021C392.576 321.852 387.389 327.8 381.078 331.917C374.768 336.033 367.272 338.359 360.077 337.867L344.283 336.786C337.075 336.293 331.488 333.058 328.359 328.138C326.631 325.419 325.677 322.222 325.597 318.751C326.154 318.828 326.723 318.887 327.304 318.927C327.412 322.029 328.284 324.848 329.795 327.225C332.592 331.623 337.649 334.629 344.399 335.09L360.194 336.17C366.956 336.632 374.09 334.444 380.149 330.492C386.206 326.541 391.128 320.865 393.512 314.43L399.075 299.417C401.456 292.992 400.846 287.077 398.048 282.677C395.383 278.484 390.665 275.559 384.384 274.894C384.392 274.314 384.374 273.741 384.332 273.178ZM236.84 207.666C243.15 203.55 250.645 201.225 257.84 201.717L273.636 202.796C273.895 202.814 274.152 202.836 274.407 202.861C274.449 203.424 274.467 203.996 274.459 204.577C274.149 204.544 273.836 204.516 273.519 204.494L257.723 203.413C250.961 202.951 243.828 205.139 237.769 209.091C231.712 213.042 226.79 218.719 224.406 225.154L219.121 239.416C216.589 246.247 211.401 252.195 205.091 256.312C198.781 260.428 191.285 262.753 184.09 262.261L169.399 261.257C162.637 260.795 155.503 262.983 149.445 266.935C143.388 270.886 138.466 276.563 136.082 282.998L130.908 296.956L130.909 296.957C128.377 303.789 123.19 309.737 116.879 313.853C110.569 317.969 103.073 320.295 95.8786 319.803L80.0826 318.723C72.8752 318.23 67.2875 314.993 64.1592 310.073C62.4309 307.355 61.4783 304.158 61.398 300.687C61.9554 300.763 62.5242 300.823 63.1049 300.864C63.2131 303.966 64.0843 306.785 65.5955 309.161C68.3921 313.56 73.4492 316.565 80.1987 317.027L95.9947 318.107C102.757 318.569 109.891 316.381 115.949 312.429C122.006 308.477 126.928 302.8 129.312 296.366L134.486 282.406C137.018 275.575 142.204 269.627 148.515 265.51C154.825 261.394 162.321 259.069 169.515 259.561L184.206 260.565C190.969 261.028 198.103 258.839 204.162 254.888C210.219 250.936 215.14 245.26 217.525 238.825L222.81 224.562C225.342 217.731 230.53 211.783 236.84 207.666ZM472.061 218.398C478.896 219.062 484.197 222.24 487.213 226.983C490.34 231.902 490.935 238.386 488.4 245.227L482.836 260.24C480.305 267.072 475.117 273.02 468.807 277.136C462.496 281.252 455.001 283.578 447.806 283.086L432.011 282.006C424.803 281.513 419.216 278.276 416.088 273.356C414.359 270.638 413.406 267.441 413.325 263.971C413.882 264.047 414.451 264.106 415.032 264.146C415.141 267.249 416.013 270.067 417.524 272.444C420.321 276.843 425.378 279.848 432.127 280.31L447.922 281.39C454.684 281.852 461.819 279.664 467.877 275.712C473.935 271.76 478.856 266.083 481.241 259.649L486.804 244.635C489.185 238.21 488.575 232.296 485.777 227.895C483.111 223.703 478.393 220.779 472.113 220.114C472.121 219.533 472.103 218.961 472.061 218.398ZM282.29 252.218C282.848 252.294 283.417 252.353 283.998 252.393C284.106 255.495 284.978 258.314 286.489 260.691C289.285 265.09 294.342 268.095 301.092 268.557L316.83 269.633C317.089 269.65 317.346 269.672 317.601 269.697C317.643 270.26 317.661 270.832 317.653 271.413C317.344 271.38 317.03 271.352 316.714 271.33L300.976 270.253C293.768 269.76 288.181 266.524 285.052 261.604C283.324 258.886 282.371 255.689 282.29 252.218ZM147.379 243.516C145.016 246.278 142.212 248.718 139.141 250.722C134.443 253.787 129.087 255.857 123.688 256.513C124.266 255.825 124.872 255.156 125.504 254.508C129.929 253.667 134.295 251.852 138.211 249.298C140.579 247.753 142.77 245.943 144.707 243.93C145.595 243.753 146.487 243.615 147.379 243.516ZM17.0246 236.875C17.5819 236.951 18.1508 237.01 18.7315 237.05C18.8396 240.152 19.7109 242.971 21.222 245.348C24.0187 249.747 29.0758 252.752 35.8253 253.214L51.6213 254.293C52.8214 254.375 54.0336 254.372 55.249 254.292C54.8777 254.867 54.5258 255.451 54.1947 256.045C53.2955 256.069 52.3978 256.052 51.5051 255.991L35.7091 254.911C28.5017 254.418 22.914 251.181 19.7858 246.261C18.0575 243.543 17.1049 240.346 17.0246 236.875ZM341.026 206.646C347.861 207.31 353.162 210.487 356.178 215.23C359.305 220.149 359.901 226.633 357.366 233.474L352.192 247.433C351.097 250.388 350.636 253.235 350.728 255.876C350.148 255.836 349.579 255.775 349.021 255.699C348.956 252.891 349.462 249.903 350.596 246.843L355.77 232.883C358.151 226.458 357.539 220.544 354.742 216.143C352.076 211.951 347.358 209.025 341.078 208.36C341.085 207.781 341.068 207.209 341.026 206.646ZM104.144 201.692C110.454 197.576 117.949 195.251 125.144 195.743L139.835 196.747C141.036 196.829 142.249 196.826 143.464 196.746C143.093 197.32 142.741 197.904 142.41 198.497C141.511 198.521 140.612 198.504 139.719 198.443L125.028 197.439C118.266 196.977 111.132 199.165 105.074 203.116C99.0166 207.068 94.0953 212.745 91.7108 219.18L86.5357 233.144C85.9475 234.731 85.2147 236.27 84.3591 237.749C83.6793 237.756 82.9979 237.787 82.316 237.842C83.3739 236.155 84.2598 234.386 84.9388 232.554L90.1139 218.588C92.6455 211.757 97.8333 205.809 104.144 201.692ZM370.594 197.471C371.152 197.547 371.721 197.606 372.301 197.646C372.41 200.748 373.282 203.567 374.793 205.944C377.59 210.343 382.647 213.348 389.396 213.81L404.561 214.846C404.819 214.864 405.076 214.886 405.331 214.91C405.373 215.474 405.391 216.046 405.383 216.626C405.074 216.594 404.761 216.565 404.445 216.543L389.28 215.506C382.073 215.013 376.485 211.777 373.357 206.857C371.629 204.139 370.675 200.942 370.594 197.471ZM429.329 151.898C436.164 152.561 441.465 155.74 444.481 160.483C447.608 165.402 448.204 171.886 445.669 178.727L440.494 192.691C439.399 195.646 438.938 198.493 439.03 201.134C438.45 201.094 437.881 201.034 437.323 200.958C437.258 198.149 437.764 195.161 438.898 192.101L444.073 178.136C446.454 171.711 445.843 165.797 443.045 161.396C440.379 157.204 435.662 154.278 429.381 153.613C429.389 153.033 429.371 152.461 429.329 151.898ZM237.117 185.55C234.67 188.518 231.715 191.132 228.459 193.256C223.349 196.589 217.462 198.747 211.586 199.187C212.107 198.542 212.653 197.914 213.221 197.303C218.188 196.628 223.14 194.694 227.528 191.831C230.15 190.121 232.558 188.087 234.64 185.809C235.465 185.689 236.292 185.601 237.117 185.55ZM103.011 179.698C100.648 182.463 97.8414 184.905 94.7674 186.91C90.0683 189.975 84.7115 192.045 79.3113 192.7C79.8883 192.012 80.4947 191.344 81.1257 190.697C85.5519 189.857 89.9201 188.041 93.8379 185.485C96.208 183.939 98.4023 182.127 100.341 180.11C101.229 179.934 102.12 179.796 103.011 179.698ZM297.773 139.805C304.609 140.468 309.909 143.647 312.925 148.39C316.053 153.309 316.648 159.793 314.113 166.634L308.828 180.896C307.733 183.851 307.272 186.697 307.365 189.339C306.784 189.298 306.215 189.238 305.658 189.162C305.593 186.353 306.099 183.365 307.232 180.306L312.518 166.044C314.899 159.618 314.287 153.704 311.489 149.303C308.824 145.111 304.106 142.185 297.825 141.521C297.833 140.94 297.815 140.368 297.773 139.805ZM192.47 143.843C198.78 139.727 206.276 137.401 213.471 137.892L229.267 138.972C230.468 139.054 231.681 139.051 232.897 138.971C232.526 139.545 232.173 140.13 231.842 140.724C230.942 140.748 230.044 140.73 229.151 140.669L213.355 139.59C206.593 139.127 199.458 141.315 193.4 145.267C187.342 149.219 182.421 154.895 180.036 161.329L174.75 175.598C174.161 177.187 173.426 178.727 172.57 180.208C171.89 180.215 171.209 180.246 170.528 180.301C171.587 178.612 172.473 176.84 173.153 175.006L178.441 160.739C180.972 153.908 186.16 147.96 192.47 143.843ZM327.351 130.625C327.908 130.701 328.477 130.761 329.058 130.801C329.166 133.904 330.038 136.722 331.549 139.099C334.346 143.498 339.402 146.502 346.151 146.964L361.941 148.043C362.2 148.061 362.458 148.083 362.712 148.107C362.754 148.671 362.772 149.243 362.764 149.823C362.455 149.791 362.142 149.762 361.825 149.741L346.035 148.661C338.828 148.168 333.241 144.931 330.113 140.011C328.385 137.292 327.431 134.096 327.351 130.625ZM192.75 121.725C190.301 124.696 187.345 127.312 184.087 129.438C178.976 132.771 173.089 134.93 167.213 135.37C167.733 134.725 168.279 134.097 168.847 133.486C173.814 132.811 178.768 130.876 183.157 128.013C185.781 126.301 188.191 124.264 190.275 121.984C191.1 121.863 191.925 121.777 192.75 121.725ZM386.085 85.0527C392.92 85.7166 398.221 88.8949 401.237 93.6384C404.364 98.5569 404.96 105.04 402.425 111.881L397.137 126.149C396.043 129.104 395.582 131.95 395.674 134.592C395.093 134.551 394.524 134.492 393.967 134.416C393.902 131.607 394.408 128.619 395.542 125.559L400.829 111.29C403.21 104.865 402.599 98.9507 399.801 94.5501C397.135 90.3578 392.418 87.4333 386.137 86.7686C386.145 86.1883 386.127 85.616 386.085 85.0527ZM281.897 86.0793C288.207 81.963 295.703 79.638 302.898 80.1298L318.694 81.2095C318.953 81.2272 319.21 81.249 319.465 81.2737C319.507 81.8371 319.525 82.4093 319.517 82.9897C319.208 82.9569 318.894 82.9285 318.578 82.9069L302.782 81.8259C296.019 81.3638 288.886 83.5518 282.828 87.5036C276.77 91.4555 271.849 97.1322 269.464 103.567L264.18 117.823C263.59 119.414 262.855 120.957 261.996 122.441C261.317 122.447 260.636 122.478 259.954 122.533C261.016 120.843 261.904 119.069 262.585 117.232L267.868 102.976C270.4 96.1449 275.587 90.1959 281.897 86.0793ZM282.173 63.9628C279.726 66.9294 276.772 69.5412 273.518 71.664C268.409 74.9968 262.523 77.1539 256.648 77.5936C257.169 76.9485 257.716 76.3217 258.285 75.711C263.25 75.0357 268.201 73.1012 272.587 70.2396C275.207 68.5307 277.613 66.4979 279.694 64.2222C280.52 64.1016 281.347 64.0145 282.173 63.9628ZM342.832 18.2177C349.667 18.8817 354.968 22.06 357.984 26.8034C361.111 31.722 361.707 38.2059 359.171 45.0471L353.887 59.303C352.793 62.2577 352.332 65.1044 352.424 67.7454C351.843 67.7053 351.274 67.6461 350.717 67.57C350.652 64.7611 351.158 61.7725 352.292 58.7125L357.576 44.4566C359.957 38.0314 359.345 32.117 356.547 27.7163C353.882 23.5239 349.164 20.5986 342.883 19.9336C342.891 19.3533 342.873 18.7811 342.832 18.2177Z" fill="black"/>
<path d="M384.332 273.178C391.168 273.842 396.469 277.02 399.485 281.764C402.612 286.682 403.206 293.166 400.671 300.007L395.108 315.021C392.576 321.852 387.389 327.8 381.078 331.917C374.768 336.033 367.272 338.359 360.077 337.867L344.283 336.786C337.075 336.293 331.488 333.058 328.359 328.138C326.631 325.419 325.677 322.222 325.597 318.751C326.154 318.828 326.723 318.887 327.304 318.927C327.412 322.029 328.284 324.848 329.795 327.225C332.592 331.623 337.649 334.629 344.399 335.09L360.194 336.17C366.956 336.632 374.09 334.444 380.149 330.492C386.206 326.541 391.128 320.865 393.512 314.43L399.075 299.417C401.456 292.992 400.846 287.077 398.048 282.677C395.383 278.484 390.665 275.559 384.384 274.894C384.392 274.314 384.374 273.741 384.332 273.178ZM236.84 207.666C243.15 203.55 250.645 201.225 257.84 201.717L273.636 202.796C273.895 202.814 274.152 202.836 274.407 202.861C274.449 203.424 274.467 203.996 274.459 204.577C274.149 204.544 273.836 204.516 273.519 204.494L257.723 203.413C250.961 202.951 243.828 205.139 237.769 209.091C231.712 213.042 226.79 218.719 224.406 225.154L219.121 239.416C216.589 246.247 211.401 252.195 205.091 256.312C198.781 260.428 191.285 262.753 184.09 262.261L169.399 261.257C162.637 260.795 155.503 262.983 149.445 266.935C143.388 270.886 138.466 276.563 136.082 282.998L130.908 296.956L130.909 296.957C128.377 303.789 123.19 309.737 116.879 313.853C110.569 317.969 103.073 320.295 95.8786 319.803L80.0826 318.723C72.8752 318.23 67.2875 314.993 64.1592 310.073C62.4309 307.355 61.4783 304.158 61.398 300.687C61.9554 300.763 62.5242 300.823 63.1049 300.864C63.2131 303.966 64.0843 306.785 65.5955 309.161C68.3921 313.56 73.4492 316.565 80.1987 317.027L95.9947 318.107C102.757 318.569 109.891 316.381 115.949 312.429C122.006 308.477 126.928 302.8 129.312 296.366L134.486 282.406C137.018 275.575 142.204 269.627 148.515 265.51C154.825 261.394 162.321 259.069 169.515 259.561L184.206 260.565C190.969 261.028 198.103 258.839 204.162 254.888C210.219 250.936 215.14 245.26 217.525 238.825L222.81 224.562C225.342 217.731 230.53 211.783 236.84 207.666ZM472.061 218.398C478.896 219.062 484.197 222.24 487.213 226.983C490.34 231.902 490.935 238.386 488.4 245.227L482.836 260.24C480.305 267.072 475.117 273.02 468.807 277.136C462.496 281.252 455.001 283.578 447.806 283.086L432.011 282.006C424.803 281.513 419.216 278.276 416.088 273.356C414.359 270.638 413.406 267.441 413.325 263.971C413.882 264.047 414.451 264.106 415.032 264.146C415.141 267.249 416.013 270.067 417.524 272.444C420.321 276.843 425.378 279.848 432.127 280.31L447.922 281.39C454.684 281.852 461.819 279.664 467.877 275.712C473.935 271.76 478.856 266.083 481.241 259.649L486.804 244.635C489.185 238.21 488.575 232.296 485.777 227.895C483.111 223.703 478.393 220.779 472.113 220.114C472.121 219.533 472.103 218.961 472.061 218.398ZM282.29 252.218C282.848 252.294 283.417 252.353 283.998 252.393C284.106 255.495 284.978 258.314 286.489 260.691C289.285 265.09 294.342 268.095 301.092 268.557L316.83 269.633C317.089 269.65 317.346 269.672 317.601 269.697C317.643 270.26 317.661 270.832 317.653 271.413C317.344 271.38 317.03 271.352 316.714 271.33L300.976 270.253C293.768 269.76 288.181 266.524 285.052 261.604C283.324 258.886 282.371 255.689 282.29 252.218ZM147.379 243.516C145.016 246.278 142.212 248.718 139.141 250.722C134.443 253.787 129.087 255.857 123.688 256.513C124.266 255.825 124.872 255.156 125.504 254.508C129.929 253.667 134.295 251.852 138.211 249.298C140.579 247.753 142.77 245.943 144.707 243.93C145.595 243.753 146.487 243.615 147.379 243.516ZM17.0246 236.875C17.5819 236.951 18.1508 237.01 18.7315 237.05C18.8396 240.152 19.7109 242.971 21.222 245.348C24.0187 249.747 29.0758 252.752 35.8253 253.214L51.6213 254.293C52.8214 254.375 54.0336 254.372 55.249 254.292C54.8777 254.867 54.5258 255.451 54.1947 256.045C53.2955 256.069 52.3978 256.052 51.5051 255.991L35.7091 254.911C28.5017 254.418 22.914 251.181 19.7858 246.261C18.0575 243.543 17.1049 240.346 17.0246 236.875ZM341.026 206.646C347.861 207.31 353.162 210.487 356.178 215.23C359.305 220.149 359.901 226.633 357.366 233.474L352.192 247.433C351.097 250.388 350.636 253.235 350.728 255.876C350.148 255.836 349.579 255.775 349.021 255.699C348.956 252.891 349.462 249.903 350.596 246.843L355.77 232.883C358.151 226.458 357.539 220.544 354.742 216.143C352.076 211.951 347.358 209.025 341.078 208.36C341.085 207.781 341.068 207.209 341.026 206.646ZM104.144 201.692C110.454 197.576 117.949 195.251 125.144 195.743L139.835 196.747C141.036 196.829 142.249 196.826 143.464 196.746C143.093 197.32 142.741 197.904 142.41 198.497C141.511 198.521 140.612 198.504 139.719 198.443L125.028 197.439C118.266 196.977 111.132 199.165 105.074 203.116C99.0166 207.068 94.0953 212.745 91.7108 219.18L86.5357 233.144C85.9475 234.731 85.2147 236.27 84.3591 237.749C83.6793 237.756 82.9979 237.787 82.316 237.842C83.3739 236.155 84.2598 234.386 84.9388 232.554L90.1139 218.588C92.6455 211.757 97.8333 205.809 104.144 201.692ZM370.594 197.471C371.152 197.547 371.721 197.606 372.301 197.646C372.41 200.748 373.282 203.567 374.793 205.944C377.59 210.343 382.647 213.348 389.396 213.81L404.561 214.846C404.819 214.864 405.076 214.886 405.331 214.91C405.373 215.474 405.391 216.046 405.383 216.626C405.074 216.594 404.761 216.565 404.445 216.543L389.28 215.506C382.073 215.013 376.485 211.777 373.357 206.857C371.629 204.139 370.675 200.942 370.594 197.471ZM429.329 151.898C436.164 152.561 441.465 155.74 444.481 160.483C447.608 165.402 448.204 171.886 445.669 178.727L440.494 192.691C439.399 195.646 438.938 198.493 439.03 201.134C438.45 201.094 437.881 201.034 437.323 200.958C437.258 198.149 437.764 195.161 438.898 192.101L444.073 178.136C446.454 171.711 445.843 165.797 443.045 161.396C440.379 157.204 435.662 154.278 429.381 153.613C429.389 153.033 429.371 152.461 429.329 151.898ZM237.117 185.55C234.67 188.518 231.715 191.132 228.459 193.256C223.349 196.589 217.462 198.747 211.586 199.187C212.107 198.542 212.653 197.914 213.221 197.303C218.188 196.628 223.14 194.694 227.528 191.831C230.15 190.121 232.558 188.087 234.64 185.809C235.465 185.689 236.292 185.601 237.117 185.55ZM103.011 179.698C100.648 182.463 97.8414 184.905 94.7674 186.91C90.0683 189.975 84.7115 192.045 79.3113 192.7C79.8883 192.012 80.4947 191.344 81.1257 190.697C85.5519 189.857 89.9201 188.041 93.8379 185.485C96.208 183.939 98.4023 182.127 100.341 180.11C101.229 179.934 102.12 179.796 103.011 179.698ZM297.773 139.805C304.609 140.468 309.909 143.647 312.925 148.39C316.053 153.309 316.648 159.793 314.113 166.634L308.828 180.896C307.733 183.851 307.272 186.697 307.365 189.339C306.784 189.298 306.215 189.238 305.658 189.162C305.593 186.353 306.099 183.365 307.232 180.306L312.518 166.044C314.899 159.618 314.287 153.704 311.489 149.303C308.824 145.111 304.106 142.185 297.825 141.521C297.833 140.94 297.815 140.368 297.773 139.805ZM192.47 143.843C198.78 139.727 206.276 137.401 213.471 137.892L229.267 138.972C230.468 139.054 231.681 139.051 232.897 138.971C232.526 139.545 232.173 140.13 231.842 140.724C230.942 140.748 230.044 140.73 229.151 140.669L213.355 139.59C206.593 139.127 199.458 141.315 193.4 145.267C187.342 149.219 182.421 154.895 180.036 161.329L174.75 175.598C174.161 177.187 173.426 178.727 172.57 180.208C171.89 180.215 171.209 180.246 170.528 180.301C171.587 178.612 172.473 176.84 173.153 175.006L178.441 160.739C180.972 153.908 186.16 147.96 192.47 143.843ZM327.351 130.625C327.908 130.701 328.477 130.761 329.058 130.801C329.166 133.904 330.038 136.722 331.549 139.099C334.346 143.498 339.402 146.502 346.151 146.964L361.941 148.043C362.2 148.061 362.458 148.083 362.712 148.107C362.754 148.671 362.772 149.243 362.764 149.823C362.455 149.791 362.142 149.762 361.825 149.741L346.035 148.661C338.828 148.168 333.241 144.931 330.113 140.011C328.385 137.292 327.431 134.096 327.351 130.625ZM192.75 121.725C190.301 124.696 187.345 127.312 184.087 129.438C178.976 132.771 173.089 134.93 167.213 135.37C167.733 134.725 168.279 134.097 168.847 133.486C173.814 132.811 178.768 130.876 183.157 128.013C185.781 126.301 188.191 124.264 190.275 121.984C191.1 121.863 191.925 121.777 192.75 121.725ZM386.085 85.0527C392.92 85.7166 398.221 88.8949 401.237 93.6384C404.364 98.5569 404.96 105.04 402.425 111.881L397.137 126.149C396.043 129.104 395.582 131.95 395.674 134.592C395.093 134.551 394.524 134.492 393.967 134.416C393.902 131.607 394.408 128.619 395.542 125.559L400.829 111.29C403.21 104.865 402.599 98.9507 399.801 94.5501C397.135 90.3578 392.418 87.4333 386.137 86.7686C386.145 86.1883 386.127 85.616 386.085 85.0527ZM281.897 86.0793C288.207 81.963 295.703 79.638 302.898 80.1298L318.694 81.2095C318.953 81.2272 319.21 81.249 319.465 81.2737C319.507 81.8371 319.525 82.4093 319.517 82.9897C319.208 82.9569 318.894 82.9285 318.578 82.9069L302.782 81.8259C296.019 81.3638 288.886 83.5518 282.828 87.5036C276.77 91.4555 271.849 97.1322 269.464 103.567L264.18 117.823C263.59 119.414 262.855 120.957 261.996 122.441C261.317 122.447 260.636 122.478 259.954 122.533C261.016 120.843 261.904 119.069 262.585 117.232L267.868 102.976C270.4 96.1449 275.587 90.1959 281.897 86.0793ZM282.173 63.9628C279.726 66.9294 276.772 69.5412 273.518 71.664C268.409 74.9968 262.523 77.1539 256.648 77.5936C257.169 76.9485 257.716 76.3217 258.285 75.711C263.25 75.0357 268.201 73.1012 272.587 70.2396C275.207 68.5307 277.613 66.4979 279.694 64.2222C280.52 64.1016 281.347 64.0145 282.173 63.9628ZM342.832 18.2177C349.667 18.8817 354.968 22.06 357.984 26.8034C361.111 31.722 361.707 38.2059 359.171 45.0471L353.887 59.303C352.793 62.2577 352.332 65.1044 352.424 67.7454C351.843 67.7053 351.274 67.6461 350.717 67.57C350.652 64.7611 351.158 61.7725 352.292 58.7125L357.576 44.4566C359.957 38.0314 359.345 32.117 356.547 27.7163C353.882 23.5239 349.164 20.5986 342.883 19.9336C342.891 19.3533 342.873 18.7811 342.832 18.2177Z" fill="url(#paint20_linear_0_20)" fill-opacity="0.66"/>
<path d="M243.19 127.603C249.5 123.486 256.995 121.16 264.19 121.652L279.986 122.732C287.194 123.225 292.78 126.462 295.908 131.382C299.036 136.3 299.631 142.784 297.096 149.625L291.811 163.887C289.43 170.313 290.042 176.227 292.84 180.628C295.636 185.026 300.692 188.03 307.442 188.492L323.238 189.573C330.445 190.066 336.032 193.301 339.161 198.222C342.288 203.14 342.884 209.624 340.349 216.465L335.175 230.425C332.794 236.85 333.405 242.764 336.203 247.165C339 251.564 344.057 254.568 350.806 255.029L366.544 256.105C373.752 256.598 379.339 259.835 382.468 264.755C385.595 269.674 386.189 276.158 383.654 282.999L378.091 298.012C375.559 304.844 370.372 310.791 364.061 314.908C357.751 319.024 350.255 321.351 343.06 320.859L327.266 319.778C320.058 319.285 314.471 316.049 311.342 311.129C308.215 306.21 307.619 299.726 310.155 292.885L315.328 278.926C317.709 272.501 317.098 266.586 314.3 262.186C311.503 257.787 306.447 254.783 299.697 254.321L283.959 253.244C276.751 252.751 271.164 249.516 268.036 244.595C264.908 239.677 264.313 233.193 266.848 226.352L272.134 212.09C274.515 205.664 273.904 199.75 271.106 195.349C268.309 190.951 263.252 187.947 256.503 187.485L240.706 186.404C233.944 185.942 226.811 188.13 220.753 192.082C214.695 196.034 209.774 201.71 207.389 208.145L202.104 222.407C199.572 229.239 194.385 235.187 188.074 239.303C181.764 243.42 174.268 245.745 167.073 245.253L152.382 244.248C145.62 243.786 138.487 245.974 132.428 249.926C126.37 253.878 121.449 259.554 119.065 265.989L113.891 279.947L113.892 279.949C111.361 286.78 106.173 292.728 99.8624 296.845C93.5522 300.961 86.0568 303.286 78.8617 302.794L63.0656 301.714C55.8581 301.222 50.2706 297.985 47.1423 293.064C44.0154 288.146 43.4207 281.663 45.9558 274.822L51.519 259.809C54.0506 252.977 59.2381 247.028 65.5488 242.912C71.8589 238.795 79.3546 236.47 86.5495 236.962L101.239 237.967C108.002 238.429 115.136 236.241 121.194 232.289C127.252 228.337 132.173 222.661 134.558 216.227L139.731 202.267C142.262 195.436 147.45 189.488 153.76 185.371C160.071 181.255 167.566 178.929 174.761 179.421L190.557 180.5C197.32 180.963 204.453 178.775 210.511 174.823C216.569 170.871 221.49 165.195 223.875 158.761L229.16 144.499C231.691 137.667 236.879 131.719 243.19 127.603ZM264.074 123.349C257.312 122.887 250.177 125.075 244.119 129.027C238.061 132.979 233.14 138.655 230.756 145.089L225.47 159.351C222.939 166.183 217.752 172.131 211.442 176.247C205.132 180.363 197.636 182.69 190.441 182.198L174.645 181.118C167.883 180.656 160.748 182.844 154.69 186.796C148.632 190.748 143.711 196.423 141.326 202.858L136.154 216.817C133.622 223.649 128.435 229.597 122.124 233.713C115.814 237.83 108.318 240.156 101.123 239.664L86.4334 238.66C79.6709 238.197 72.5366 240.384 66.4782 244.336C60.4203 248.288 55.4993 253.964 53.1147 260.399L47.5514 275.413C45.1704 281.838 45.7807 287.752 48.5786 292.153C51.3753 296.552 56.4321 299.557 63.1818 300.018L78.9778 301.098C85.7401 301.56 92.8735 299.372 98.9317 295.42C104.99 291.468 109.911 285.792 112.295 279.357L117.469 265.398C120.001 258.566 125.187 252.618 131.498 248.502C137.808 244.385 145.304 242.06 152.499 242.552L167.19 243.557C173.952 244.019 181.086 241.831 187.145 237.879C193.202 233.927 198.124 228.251 200.508 221.817L205.793 207.553C208.325 200.722 213.513 194.774 219.823 190.658C226.133 186.541 233.628 184.216 240.823 184.708L256.619 185.788C263.826 186.281 269.414 189.517 272.542 194.438C275.669 199.356 276.265 205.839 273.73 212.68L268.445 226.942C266.064 233.367 266.674 239.282 269.472 243.683C272.269 248.081 277.325 251.086 284.075 251.548L299.813 252.624C307.021 253.117 312.608 256.353 315.736 261.274C318.863 266.192 319.459 272.675 316.924 279.516L311.75 293.476C309.369 299.901 309.981 305.815 312.779 310.216C315.575 314.615 320.632 317.62 327.382 318.082L343.177 319.161C349.939 319.624 357.073 317.436 363.132 313.484C369.189 309.532 374.111 303.856 376.495 297.422L382.059 282.408C384.44 275.983 383.829 270.069 381.031 265.668C378.235 261.269 373.178 258.264 366.428 257.803L350.69 256.727C343.482 256.234 337.895 252.997 334.767 248.077C331.64 243.158 331.044 236.675 333.579 229.834L338.753 215.875C341.134 209.45 340.522 203.535 337.725 199.135C334.928 194.736 329.871 191.731 323.121 191.269L307.325 190.189C300.118 189.696 294.532 186.46 291.403 181.539C288.276 176.621 287.68 170.138 290.215 163.297L295.501 149.035C297.882 142.61 297.27 136.695 294.472 132.295C291.676 127.896 286.62 124.891 279.87 124.429L264.074 123.349ZM288.248 6.01579C294.558 1.89947 302.054 -0.426832 309.249 0.0651023L325.043 1.1448C332.251 1.63759 337.838 4.87448 340.967 9.79473C344.094 14.7133 344.69 21.1972 342.154 28.0384L336.871 42.2943C334.489 48.7195 335.101 54.6339 337.899 59.0346C340.696 63.4334 345.752 66.4386 352.502 66.9001L368.297 67.9798C375.505 68.4726 381.092 71.7093 384.22 76.6297C387.347 81.5482 387.943 88.0311 385.408 94.8721L380.12 109.14C377.739 115.566 378.351 121.48 381.149 125.881C383.946 130.279 389.002 133.285 395.752 133.746L411.542 134.825C418.749 135.318 424.336 138.555 427.464 143.475C430.591 148.393 431.187 154.877 428.652 161.718L423.477 175.683C421.096 182.108 421.707 188.022 424.505 192.423C427.302 196.822 432.358 199.827 439.108 200.288L454.273 201.325C461.48 201.818 467.068 205.054 470.196 209.975C473.323 214.893 473.918 221.377 471.383 228.218L465.819 243.232C463.288 250.063 458.1 256.011 451.79 260.128C445.479 264.244 437.984 266.569 430.789 266.077L414.994 264.997C407.786 264.504 402.199 261.268 399.071 256.347C395.944 251.429 395.348 244.946 397.883 238.105L403.058 224.139C405.439 217.714 404.828 211.8 402.03 207.399C399.233 203.001 394.177 199.996 387.428 199.535L372.263 198.497C365.056 198.004 359.468 194.769 356.34 189.848C353.213 184.93 352.617 178.446 355.152 171.605L360.44 157.336C362.821 150.911 362.209 144.998 359.411 140.597C356.615 136.199 351.558 133.193 344.808 132.732L329.018 131.652C321.811 131.159 316.224 127.923 313.096 123.002C309.969 118.084 309.373 111.601 311.908 104.76L317.191 90.5027C319.572 84.0774 318.962 78.1631 316.164 73.7624C313.367 69.3637 308.31 66.3597 301.561 65.8982L285.765 64.8173C279.002 64.355 271.869 66.543 265.811 70.4949C259.753 74.4468 254.832 80.1234 252.447 86.5582L247.163 100.814C244.632 107.646 239.444 113.593 233.134 117.71C226.824 121.826 219.329 124.153 212.134 123.661L196.338 122.581C189.576 122.119 182.441 124.307 176.383 128.259C170.325 132.211 165.404 137.886 163.019 144.321L157.733 158.589C155.201 165.421 150.014 171.368 143.703 175.485C137.393 179.601 129.897 181.926 122.702 181.434L108.011 180.43C101.249 179.968 94.1157 182.156 88.0575 186.108C81.9995 190.06 77.0785 195.736 74.6939 202.171L69.5188 216.135C66.9872 222.967 61.7995 228.915 55.489 233.031C49.1788 237.148 41.6833 239.474 34.4882 238.982L18.6922 237.902C11.4846 237.409 5.89719 234.173 2.76889 229.252C-0.358272 224.334 -0.952839 217.85 1.58234 211.009L7.14555 195.995C9.67723 189.164 14.8647 183.216 21.1753 179.1C27.4855 174.983 34.9811 172.657 42.1761 173.149L56.8659 174.154C63.6283 174.617 70.7627 172.429 76.821 168.477C82.879 164.525 87.8 158.848 90.1846 152.414L95.3597 138.449C97.8914 131.617 103.079 125.669 109.389 121.552C115.7 117.436 123.195 115.111 130.39 115.603L146.185 116.682C152.948 117.145 160.082 114.957 166.14 111.005C172.198 107.053 177.119 101.377 179.504 94.9425L184.791 80.6742C187.323 73.8429 192.509 67.8949 198.82 63.7783C205.13 59.662 212.626 57.337 219.821 57.8289L235.617 58.9086C242.379 59.3709 249.512 57.1828 255.571 53.2309C261.629 49.2791 266.55 43.6025 268.934 37.1676L274.218 22.9117C276.75 16.0801 281.937 10.1325 288.248 6.01579ZM309.132 1.76247C302.37 1.30012 295.236 3.48804 289.177 7.44015C283.119 11.392 278.198 17.0675 275.814 23.5022L270.531 37.7594C267.999 44.5909 262.812 50.5386 256.501 54.6553C250.191 58.7717 242.696 61.0966 235.5 60.6047L219.704 59.525C212.942 59.0628 205.809 61.2507 199.751 65.2027C193.693 69.1544 188.772 74.8301 186.387 81.2647L181.099 95.533C178.568 102.365 173.38 108.312 167.07 112.429C160.759 116.545 153.264 118.872 146.069 118.38L130.274 117.3C123.512 116.838 116.377 119.024 110.319 122.976C104.261 126.928 99.34 132.605 96.9554 139.04L91.7803 153.004C89.2486 159.836 84.0611 165.785 77.7505 169.901C71.4404 174.017 63.9447 176.343 56.7497 175.851L42.0599 174.846C35.2975 174.384 28.1632 176.572 22.1048 180.524C16.0471 184.476 11.1258 190.151 8.74122 196.586L3.17801 211.6C0.797223 218.025 1.40761 223.939 4.20512 228.339C7.0018 232.738 12.0587 235.743 18.8084 236.205L34.6044 237.285C41.3668 237.747 48.5 235.559 54.5583 231.607C60.6162 227.655 65.5372 221.98 67.9219 215.545L73.097 201.579C75.6287 194.748 80.8162 188.8 87.1268 184.683C93.437 180.567 100.932 178.242 108.128 178.734L122.819 179.738C129.581 180.201 136.714 178.013 142.772 174.061C148.83 170.109 153.751 164.432 156.136 157.997L161.424 143.73C163.955 136.899 169.143 130.951 175.453 126.834C181.764 122.718 189.259 120.392 196.454 120.884L212.25 121.963C219.012 122.426 226.146 120.238 232.204 116.286C238.262 112.334 243.183 106.658 245.568 100.224L250.852 85.9677C253.383 79.1361 258.569 73.1873 264.88 69.0706C271.19 64.9542 278.686 62.6292 285.881 63.1211L301.677 64.2008C308.884 64.6937 314.472 67.9304 317.6 72.8508C320.727 77.7693 321.322 84.2522 318.787 91.0932L313.504 105.35C311.123 111.776 311.735 117.69 314.532 122.091C317.329 126.489 322.385 129.493 329.134 129.955L344.924 131.035C352.132 131.527 357.719 134.764 360.848 139.684C363.975 144.603 364.571 151.087 362.035 157.928L356.748 172.195C354.367 178.62 354.978 184.535 357.776 188.935C360.573 193.334 365.63 196.339 372.379 196.801L387.544 197.837C394.751 198.33 400.339 201.567 403.467 206.487C406.594 211.406 407.189 217.889 404.654 224.73L399.479 238.695C397.098 245.121 397.709 251.035 400.507 255.436C403.304 259.834 408.361 262.84 415.11 263.301L430.905 264.381C437.668 264.843 444.802 262.655 450.86 258.703C456.918 254.751 461.839 249.075 464.224 242.64L469.787 227.627C472.168 221.201 471.558 215.287 468.76 210.886C465.963 206.488 460.906 203.484 454.157 203.022L438.992 201.986C431.785 201.493 426.197 198.256 423.069 193.336C419.942 188.417 419.346 181.933 421.881 175.092L427.056 161.128C429.437 154.702 428.826 148.788 426.028 144.387C423.231 139.989 418.175 136.984 411.426 136.522L395.636 135.442C388.428 134.949 382.841 131.713 379.713 126.792C376.586 121.874 375.99 115.391 378.525 108.55L383.812 94.2816C386.193 87.8564 385.582 81.942 382.784 77.5414C379.987 73.1429 374.931 70.1388 368.182 69.6771L352.386 68.5962C345.178 68.1034 339.591 64.8677 336.463 59.9475C333.335 55.0289 332.74 48.545 335.275 41.7038L340.559 27.4479C342.94 21.0227 342.328 15.1083 339.53 10.7077C336.734 6.30881 331.677 3.30367 324.927 2.84217L309.132 1.76247Z" fill="black"/>
<path d="M243.19 127.603C249.5 123.486 256.995 121.16 264.19 121.652L279.986 122.732C287.194 123.225 292.78 126.462 295.908 131.382C299.036 136.3 299.631 142.784 297.096 149.625L291.811 163.887C289.43 170.313 290.042 176.227 292.84 180.628C295.636 185.026 300.692 188.03 307.442 188.492L323.238 189.573C330.445 190.066 336.032 193.301 339.161 198.222C342.288 203.14 342.884 209.624 340.349 216.465L335.175 230.425C332.794 236.85 333.405 242.764 336.203 247.165C339 251.564 344.057 254.568 350.806 255.029L366.544 256.105C373.752 256.598 379.339 259.835 382.468 264.755C385.595 269.674 386.189 276.158 383.654 282.999L378.091 298.012C375.559 304.844 370.372 310.791 364.061 314.908C357.751 319.024 350.255 321.351 343.06 320.859L327.266 319.778C320.058 319.285 314.471 316.049 311.342 311.129C308.215 306.21 307.619 299.726 310.155 292.885L315.328 278.926C317.709 272.501 317.098 266.586 314.3 262.186C311.503 257.787 306.447 254.783 299.697 254.321L283.959 253.244C276.751 252.751 271.164 249.516 268.036 244.595C264.908 239.677 264.313 233.193 266.848 226.352L272.134 212.09C274.515 205.664 273.904 199.75 271.106 195.349C268.309 190.951 263.252 187.947 256.503 187.485L240.706 186.404C233.944 185.942 226.811 188.13 220.753 192.082C214.695 196.034 209.774 201.71 207.389 208.145L202.104 222.407C199.572 229.239 194.385 235.187 188.074 239.303C181.764 243.42 174.268 245.745 167.073 245.253L152.382 244.248C145.62 243.786 138.487 245.974 132.428 249.926C126.37 253.878 121.449 259.554 119.065 265.989L113.891 279.947L113.892 279.949C111.361 286.78 106.173 292.728 99.8624 296.845C93.5522 300.961 86.0568 303.286 78.8617 302.794L63.0656 301.714C55.8581 301.222 50.2706 297.985 47.1423 293.064C44.0154 288.146 43.4207 281.663 45.9558 274.822L51.519 259.809C54.0506 252.977 59.2381 247.028 65.5488 242.912C71.8589 238.795 79.3546 236.47 86.5495 236.962L101.239 237.967C108.002 238.429 115.136 236.241 121.194 232.289C127.252 228.337 132.173 222.661 134.558 216.227L139.731 202.267C142.262 195.436 147.45 189.488 153.76 185.371C160.071 181.255 167.566 178.929 174.761 179.421L190.557 180.5C197.32 180.963 204.453 178.775 210.511 174.823C216.569 170.871 221.49 165.195 223.875 158.761L229.16 144.499C231.691 137.667 236.879 131.719 243.19 127.603ZM264.074 123.349C257.312 122.887 250.177 125.075 244.119 129.027C238.061 132.979 233.14 138.655 230.756 145.089L225.47 159.351C222.939 166.183 217.752 172.131 211.442 176.247C205.132 180.363 197.636 182.69 190.441 182.198L174.645 181.118C167.883 180.656 160.748 182.844 154.69 186.796C148.632 190.748 143.711 196.423 141.326 202.858L136.154 216.817C133.622 223.649 128.435 229.597 122.124 233.713C115.814 237.83 108.318 240.156 101.123 239.664L86.4334 238.66C79.6709 238.197 72.5366 240.384 66.4782 244.336C60.4203 248.288 55.4993 253.964 53.1147 260.399L47.5514 275.413C45.1704 281.838 45.7807 287.752 48.5786 292.153C51.3753 296.552 56.4321 299.557 63.1818 300.018L78.9778 301.098C85.7401 301.56 92.8735 299.372 98.9317 295.42C104.99 291.468 109.911 285.792 112.295 279.357L117.469 265.398C120.001 258.566 125.187 252.618 131.498 248.502C137.808 244.385 145.304 242.06 152.499 242.552L167.19 243.557C173.952 244.019 181.086 241.831 187.145 237.879C193.202 233.927 198.124 228.251 200.508 221.817L205.793 207.553C208.325 200.722 213.513 194.774 219.823 190.658C226.133 186.541 233.628 184.216 240.823 184.708L256.619 185.788C263.826 186.281 269.414 189.517 272.542 194.438C275.669 199.356 276.265 205.839 273.73 212.68L268.445 226.942C266.064 233.367 266.674 239.282 269.472 243.683C272.269 248.081 277.325 251.086 284.075 251.548L299.813 252.624C307.021 253.117 312.608 256.353 315.736 261.274C318.863 266.192 319.459 272.675 316.924 279.516L311.75 293.476C309.369 299.901 309.981 305.815 312.779 310.216C315.575 314.615 320.632 317.62 327.382 318.082L343.177 319.161C349.939 319.624 357.073 317.436 363.132 313.484C369.189 309.532 374.111 303.856 376.495 297.422L382.059 282.408C384.44 275.983 383.829 270.069 381.031 265.668C378.235 261.269 373.178 258.264 366.428 257.803L350.69 256.727C343.482 256.234 337.895 252.997 334.767 248.077C331.64 243.158 331.044 236.675 333.579 229.834L338.753 215.875C341.134 209.45 340.522 203.535 337.725 199.135C334.928 194.736 329.871 191.731 323.121 191.269L307.325 190.189C300.118 189.696 294.532 186.46 291.403 181.539C288.276 176.621 287.68 170.138 290.215 163.297L295.501 149.035C297.882 142.61 297.27 136.695 294.472 132.295C291.676 127.896 286.62 124.891 279.87 124.429L264.074 123.349ZM288.248 6.01579C294.558 1.89947 302.054 -0.426832 309.249 0.0651023L325.043 1.1448C332.251 1.63759 337.838 4.87448 340.967 9.79473C344.094 14.7133 344.69 21.1972 342.154 28.0384L336.871 42.2943C334.489 48.7195 335.101 54.6339 337.899 59.0346C340.696 63.4334 345.752 66.4386 352.502 66.9001L368.297 67.9798C375.505 68.4726 381.092 71.7093 384.22 76.6297C387.347 81.5482 387.943 88.0311 385.408 94.8721L380.12 109.14C377.739 115.566 378.351 121.48 381.149 125.881C383.946 130.279 389.002 133.285 395.752 133.746L411.542 134.825C418.749 135.318 424.336 138.555 427.464 143.475C430.591 148.393 431.187 154.877 428.652 161.718L423.477 175.683C421.096 182.108 421.707 188.022 424.505 192.423C427.302 196.822 432.358 199.827 439.108 200.288L454.273 201.325C461.48 201.818 467.068 205.054 470.196 209.975C473.323 214.893 473.918 221.377 471.383 228.218L465.819 243.232C463.288 250.063 458.1 256.011 451.79 260.128C445.479 264.244 437.984 266.569 430.789 266.077L414.994 264.997C407.786 264.504 402.199 261.268 399.071 256.347C395.944 251.429 395.348 244.946 397.883 238.105L403.058 224.139C405.439 217.714 404.828 211.8 402.03 207.399C399.233 203.001 394.177 199.996 387.428 199.535L372.263 198.497C365.056 198.004 359.468 194.769 356.34 189.848C353.213 184.93 352.617 178.446 355.152 171.605L360.44 157.336C362.821 150.911 362.209 144.998 359.411 140.597C356.615 136.199 351.558 133.193 344.808 132.732L329.018 131.652C321.811 131.159 316.224 127.923 313.096 123.002C309.969 118.084 309.373 111.601 311.908 104.76L317.191 90.5027C319.572 84.0774 318.962 78.1631 316.164 73.7624C313.367 69.3637 308.31 66.3597 301.561 65.8982L285.765 64.8173C279.002 64.355 271.869 66.543 265.811 70.4949C259.753 74.4468 254.832 80.1234 252.447 86.5582L247.163 100.814C244.632 107.646 239.444 113.593 233.134 117.71C226.824 121.826 219.329 124.153 212.134 123.661L196.338 122.581C189.576 122.119 182.441 124.307 176.383 128.259C170.325 132.211 165.404 137.886 163.019 144.321L157.733 158.589C155.201 165.421 150.014 171.368 143.703 175.485C137.393 179.601 129.897 181.926 122.702 181.434L108.011 180.43C101.249 179.968 94.1157 182.156 88.0575 186.108C81.9995 190.06 77.0785 195.736 74.6939 202.171L69.5188 216.135C66.9872 222.967 61.7995 228.915 55.489 233.031C49.1788 237.148 41.6833 239.474 34.4882 238.982L18.6922 237.902C11.4846 237.409 5.89719 234.173 2.76889 229.252C-0.358272 224.334 -0.952839 217.85 1.58234 211.009L7.14555 195.995C9.67723 189.164 14.8647 183.216 21.1753 179.1C27.4855 174.983 34.9811 172.657 42.1761 173.149L56.8659 174.154C63.6283 174.617 70.7627 172.429 76.821 168.477C82.879 164.525 87.8 158.848 90.1846 152.414L95.3597 138.449C97.8914 131.617 103.079 125.669 109.389 121.552C115.7 117.436 123.195 115.111 130.39 115.603L146.185 116.682C152.948 117.145 160.082 114.957 166.14 111.005C172.198 107.053 177.119 101.377 179.504 94.9425L184.791 80.6742C187.323 73.8429 192.509 67.8949 198.82 63.7783C205.13 59.662 212.626 57.337 219.821 57.8289L235.617 58.9086C242.379 59.3709 249.512 57.1828 255.571 53.2309C261.629 49.2791 266.55 43.6025 268.934 37.1676L274.218 22.9117C276.75 16.0801 281.937 10.1325 288.248 6.01579ZM309.132 1.76247C302.37 1.30012 295.236 3.48804 289.177 7.44015C283.119 11.392 278.198 17.0675 275.814 23.5022L270.531 37.7594C267.999 44.5909 262.812 50.5386 256.501 54.6553C250.191 58.7717 242.696 61.0966 235.5 60.6047L219.704 59.525C212.942 59.0628 205.809 61.2507 199.751 65.2027C193.693 69.1544 188.772 74.8301 186.387 81.2647L181.099 95.533C178.568 102.365 173.38 108.312 167.07 112.429C160.759 116.545 153.264 118.872 146.069 118.38L130.274 117.3C123.512 116.838 116.377 119.024 110.319 122.976C104.261 126.928 99.34 132.605 96.9554 139.04L91.7803 153.004C89.2486 159.836 84.0611 165.785 77.7505 169.901C71.4404 174.017 63.9447 176.343 56.7497 175.851L42.0599 174.846C35.2975 174.384 28.1632 176.572 22.1048 180.524C16.0471 184.476 11.1258 190.151 8.74122 196.586L3.17801 211.6C0.797223 218.025 1.40761 223.939 4.20512 228.339C7.0018 232.738 12.0587 235.743 18.8084 236.205L34.6044 237.285C41.3668 237.747 48.5 235.559 54.5583 231.607C60.6162 227.655 65.5372 221.98 67.9219 215.545L73.097 201.579C75.6287 194.748 80.8162 188.8 87.1268 184.683C93.437 180.567 100.932 178.242 108.128 178.734L122.819 179.738C129.581 180.201 136.714 178.013 142.772 174.061C148.83 170.109 153.751 164.432 156.136 157.997L161.424 143.73C163.955 136.899 169.143 130.951 175.453 126.834C181.764 122.718 189.259 120.392 196.454 120.884L212.25 121.963C219.012 122.426 226.146 120.238 232.204 116.286C238.262 112.334 243.183 106.658 245.568 100.224L250.852 85.9677C253.383 79.1361 258.569 73.1873 264.88 69.0706C271.19 64.9542 278.686 62.6292 285.881 63.1211L301.677 64.2008C308.884 64.6937 314.472 67.9304 317.6 72.8508C320.727 77.7693 321.322 84.2522 318.787 91.0932L313.504 105.35C311.123 111.776 311.735 117.69 314.532 122.091C317.329 126.489 322.385 129.493 329.134 129.955L344.924 131.035C352.132 131.527 357.719 134.764 360.848 139.684C363.975 144.603 364.571 151.087 362.035 157.928L356.748 172.195C354.367 178.62 354.978 184.535 357.776 188.935C360.573 193.334 365.63 196.339 372.379 196.801L387.544 197.837C394.751 198.33 400.339 201.567 403.467 206.487C406.594 211.406 407.189 217.889 404.654 224.73L399.479 238.695C397.098 245.121 397.709 251.035 400.507 255.436C403.304 259.834 408.361 262.84 415.11 263.301L430.905 264.381C437.668 264.843 444.802 262.655 450.86 258.703C456.918 254.751 461.839 249.075 464.224 242.64L469.787 227.627C472.168 221.201 471.558 215.287 468.76 210.886C465.963 206.488 460.906 203.484 454.157 203.022L438.992 201.986C431.785 201.493 426.197 198.256 423.069 193.336C419.942 188.417 419.346 181.933 421.881 175.092L427.056 161.128C429.437 154.702 428.826 148.788 426.028 144.387C423.231 139.989 418.175 136.984 411.426 136.522L395.636 135.442C388.428 134.949 382.841 131.713 379.713 126.792C376.586 121.874 375.99 115.391 378.525 108.55L383.812 94.2816C386.193 87.8564 385.582 81.942 382.784 77.5414C379.987 73.1429 374.931 70.1388 368.182 69.6771L352.386 68.5962C345.178 68.1034 339.591 64.8677 336.463 59.9475C333.335 55.0289 332.74 48.545 335.275 41.7038L340.559 27.4479C342.94 21.0227 342.328 15.1083 339.53 10.7077C336.734 6.30881 331.677 3.30367 324.927 2.84217L309.132 1.76247Z" fill="url(#paint21_linear_0_20)" fill-opacity="0.66"/>
</g>
<defs>
<filter id="filter0_i_0_20" x="0" y="0" width="507" height="355" filterUnits="userSpaceOnUse" color-interpolation-filters="sRGB">
<feFlood flood-opacity="0" result="BackgroundImageFix"/>
<feBlend mode="normal" in="SourceGraphic" in2="BackgroundImageFix" result="shape"/>
<feColorMatrix in="SourceAlpha" type="matrix" values="0 0 0 0 0 0 0 0 0 0 0 0 0 0 0 0 0 0 127 0" result="hardAlpha"/>
<feOffset dy="-0.5"/>
<feComposite in2="hardAlpha" operator="arithmetic" k2="-1" k3="1"/>
<feColorMatrix type="matrix" values="0 0 0 0 1 0 0 0 0 1 0 0 0 0 1 0 0 0 1 0"/>
<feBlend mode="normal" in2="shape" result="effect1_innerShadow_0_20"/>
</filter>
<linearGradient id="paint0_linear_0_20" x1="1596.71" y1="-72.9018" x2="-26.0716" y2="478.206" gradientUnits="userSpaceOnUse">
<stop stop-opacity="0"/>
<stop offset="0.179816"/>
<stop offset="0.277643" stop-opacity="0"/>
<stop offset="0.354289"/>
<stop offset="0.519606" stop-opacity="0"/>
<stop offset="0.637584"/>
<stop offset="0.847892" stop-opacity="0"/>
<stop offset="1" stop-opacity="0.876389"/>
</linearGradient>
<linearGradient id="paint1_linear_0_20" x1="1596.71" y1="-72.9018" x2="-26.0716" y2="478.206" gradientUnits="userSpaceOnUse">
<stop stop-opacity="0"/>
<stop offset="0.179816"/>
<stop offset="0.277643" stop-opacity="0"/>
<stop offset="0.354289"/>
<stop offset="0.519606" stop-opacity="0"/>
<stop offset="0.637584"/>
<stop offset="0.847892" stop-opacity="0"/>
<stop offset="1" stop-opacity="0.876389"/>
</linearGradient>
<linearGradient id="paint2_linear_0_20" x1="1596.71" y1="-72.9018" x2="-26.0716" y2="478.206" gradientUnits="userSpaceOnUse">
<stop stop-opacity="0"/>
<stop offset="0.179816"/>
<stop offset="0.277643" stop-opacity="0"/>
<stop offset="0.354289"/>
<stop offset="0.519606" stop-opacity="0"/>
<stop offset="0.637584"/>
<stop offset="0.847892" stop-opacity="0"/>
<stop offset="1" stop-opacity="0.876389"/>
</linearGradient>
<linearGradient id="paint3_linear_0_20" x1="1596.71" y1="-72.9018" x2="-26.0716" y2="478.206" gradientUnits="userSpaceOnUse">
<stop stop-opacity="0"/>
<stop offset="0.179816"/>
<stop offset="0.277643" stop-opacity="0"/>
<stop offset="0.354289"/>
<stop offset="0.519606" stop-opacity="0"/>
<stop offset="0.637584"/>
<stop offset="0.847892" stop-opacity="0"/>
<stop offset="1" stop-opacity="0.876389"/>
</linearGradient>
<linearGradient id="paint4_linear_0_20" x1="1596.71" y1="-72.9018" x2="-26.0716" y2="478.206" gradientUnits="userSpaceOnUse">
<stop stop-opacity="0"/>
<stop offset="0.179816"/>
<stop offset="0.277643" stop-opacity="0"/>
<stop offset="0.354289"/>
<stop offset="0.519606" stop-opacity="0"/>
<stop offset="0.637584"/>
<stop offset="0.847892" stop-opacity="0"/>
<stop offset="1" stop-opacity="0.876389"/>
</linearGradient>
<linearGradient id="paint5_linear_0_20" x1="1596.71" y1="-72.9018" x2="-26.0716" y2="478.206" gradientUnits="userSpaceOnUse">
<stop stop-opacity="0"/>
<stop offset="0.179816"/>
<stop offset="0.277643" stop-opacity="0"/>
<stop offset="0.354289"/>
<stop offset="0.519606" stop-opacity="0"/>
<stop offset="0.637584"/>
<stop offset="0.847892" stop-opacity="0"/>
<stop offset="1" stop-opacity="0.876389"/>
</linearGradient>
<linearGradient id="paint6_linear_0_20" x1="1596.71" y1="-72.9018" x2="-26.0716" y2="478.206" gradientUnits="userSpaceOnUse">
<stop stop-opacity="0"/>
<stop offset="0.179816"/>
<stop offset="0.277643" stop-opacity="0"/>
<stop offset="0.354289"/>
<stop offset="0.519606" stop-opacity="0"/>
<stop offset="0.637584"/>
<stop offset="0.847892" stop-opacity="0"/>
<stop offset="1" stop-opacity="0.876389"/>
</linearGradient>
<linearGradient id="paint7_linear_0_20" x1="1596.71" y1="-72.9018" x2="-26.0716" y2="478.206" gradientUnits="userSpaceOnUse">
<stop stop-opacity="0"/>
<stop offset="0.179816"/>
<stop offset="0.277643" stop-opacity="0"/>
<stop offset="0.354289"/>
<stop offset="0.519606" stop-opacity="0"/>
<stop offset="0.637584"/>
<stop offset="0.847892" stop-opacity="0"/>
<stop offset="1" stop-opacity="0.876389"/>
</linearGradient>
<linearGradient id="paint8_linear_0_20" x1="1596.71" y1="-72.9018" x2="-26.0716" y2="478.206" gradientUnits="userSpaceOnUse">
<stop stop-opacity="0"/>
<stop offset="0.179816"/>
<stop offset="0.277643" stop-opacity="0"/>
<stop offset="0.354289"/>
<stop offset="0.519606" stop-opacity="0"/>
<stop offset="0.637584"/>
<stop offset="0.847892" stop-opacity="0"/>
<stop offset="1" stop-opacity="0.876389"/>
</linearGradient>
<linearGradient id="paint9_linear_0_20" x1="1596.71" y1="-72.9018" x2="-26.0716" y2="478.206" gradientUnits="userSpaceOnUse">
<stop stop-opacity="0"/>
<stop offset="0.179816"/>
<stop offset="0.277643" stop-opacity="0"/>
<stop offset="0.354289"/>
<stop offset="0.519606" stop-opacity="0"/>
<stop offset="0.637584"/>
<stop offset="0.847892" stop-opacity="0"/>
<stop offset="1" stop-opacity="0.876389"/>
</linearGradient>
<linearGradient id="paint10_linear_0_20" x1="1596.71" y1="-72.9018" x2="-26.0716" y2="478.206" gradientUnits="userSpaceOnUse">
<stop stop-opacity="0"/>
<stop offset="0.179816"/>
<stop offset="0.277643" stop-opacity="0"/>
<stop offset="0.354289"/>
<stop offset="0.519606" stop-opacity="0"/>
<stop offset="0.637584"/>
<stop offset="0.847892" stop-opacity="0"/>
<stop offset="1" stop-opacity="0.876389"/>
</linearGradient>
<linearGradient id="paint11_linear_0_20" x1="1596.71" y1="-72.9018" x2="-26.0716" y2="478.206" gradientUnits="userSpaceOnUse">
<stop stop-opacity="0"/>
<stop offset="0.179816"/>
<stop offset="0.277643" stop-opacity="0"/>
<stop offset="0.354289"/>
<stop offset="0.519606" stop-opacity="0"/>
<stop offset="0.637584"/>
<stop offset="0.847892" stop-opacity="0"/>
<stop offset="1" stop-opacity="0.876389"/>
</linearGradient>
<linearGradient id="paint12_linear_0_20" x1="1596.71" y1="-72.9018" x2="-26.0716" y2="478.206" gradientUnits="userSpaceOnUse">
<stop stop-opacity="0"/>
<stop offset="0.179816"/>
<stop offset="0.277643" stop-opacity="0"/>
<stop offset="0.354289"/>
<stop offset="0.519606" stop-opacity="0"/>
<stop offset="0.637584"/>
<stop offset="0.847892" stop-opacity="0"/>
<stop offset="1" stop-opacity="0.876389"/>
</linearGradient>
<linearGradient id="paint13_linear_0_20" x1="1596.71" y1="-72.9018" x2="-26.0716" y2="478.206" gradientUnits="userSpaceOnUse">
<stop stop-opacity="0"/>
<stop offset="0.179816"/>
<stop offset="0.277643" stop-opacity="0"/>
<stop offset="0.354289"/>
<stop offset="0.519606" stop-opacity="0"/>
<stop offset="0.637584"/>
<stop offset="0.847892" stop-opacity="0"/>
<stop offset="1" stop-opacity="0.876389"/>
</linearGradient>
<linearGradient id="paint14_linear_0_20" x1="1596.71" y1="-72.9018" x2="-26.0716" y2="478.206" gradientUnits="userSpaceOnUse">
<stop stop-opacity="0"/>
<stop offset="0.179816"/>
<stop offset="0.277643" stop-opacity="0"/>
<stop offset="0.354289"/>
<stop offset="0.519606" stop-opacity="0"/>
<stop offset="0.637584"/>
<stop offset="0.847892" stop-opacity="0"/>
<stop offset="1" stop-opacity="0.876389"/>
</linearGradient>
<linearGradient id="paint15_linear_0_20" x1="1596.71" y1="-72.9018" x2="-26.0716" y2="478.206" gradientUnits="userSpaceOnUse">
<stop stop-opacity="0"/>
<stop offset="0.179816"/>
<stop offset="0.277643" stop-opacity="0"/>
<stop offset="0.354289"/>
<stop offset="0.519606" stop-opacity="0"/>
<stop offset="0.637584"/>
<stop offset="0.847892" stop-opacity="0"/>
<stop offset="1" stop-opacity="0.876389"/>
</linearGradient>
<linearGradient id="paint16_linear_0_20" x1="1596.71" y1="-72.9018" x2="-26.0716" y2="478.206" gradientUnits="userSpaceOnUse">
<stop stop-opacity="0"/>
<stop offset="0.179816"/>
<stop offset="0.277643" stop-opacity="0"/>
<stop offset="0.354289"/>
<stop offset="0.519606" stop-opacity="0"/>
<stop offset="0.637584"/>
<stop offset="0.847892" stop-opacity="0"/>
<stop offset="1" stop-opacity="0.876389"/>
</linearGradient>
<linearGradient id="paint17_linear_0_20" x1="1596.71" y1="-72.9018" x2="-26.0716" y2="478.206" gradientUnits="userSpaceOnUse">
<stop stop-opacity="0"/>
<stop offset="0.179816"/>
<stop offset="0.277643" stop-opacity="0"/>
<stop offset="0.354289"/>
<stop offset="0.519606" stop-opacity="0"/>
<stop offset="0.637584"/>
<stop offset="0.847892" stop-opacity="0"/>
<stop offset="1" stop-opacity="0.876389"/>
</linearGradient>
<linearGradient id="paint18_linear_0_20" x1="1596.71" y1="-72.9018" x2="-26.0716" y2="478.206" gradientUnits="userSpaceOnUse">
<stop stop-opacity="0"/>
<stop offset="0.179816"/>
<stop offset="0.277643" stop-opacity="0"/>
<stop offset="0.354289"/>
<stop offset="0.519606" stop-opacity="0"/>
<stop offset="0.637584"/>
<stop offset="0.847892" stop-opacity="0"/>
<stop offset="1" stop-opacity="0.876389"/>
</linearGradient>
<linearGradient id="paint19_linear_0_20" x1="1596.71" y1="-72.9018" x2="-26.0716" y2="478.206" gradientUnits="userSpaceOnUse">
<stop stop-opacity="0"/>
<stop offset="0.179816"/>
<stop offset="0.277643" stop-opacity="0"/>
<stop offset="0.354289"/>
<stop offset="0.519606" stop-opacity="0"/>
<stop offset="0.637584"/>
<stop offset="0.847892" stop-opacity="0"/>
<stop offset="1" stop-opacity="0.876389"/>
</linearGradient>
<linearGradient id="paint20_linear_0_20" x1="1596.71" y1="-72.9018" x2="-26.0716" y2="478.206" gradientUnits="userSpaceOnUse">
<stop stop-opacity="0"/>
<stop offset="0.179816"/>
<stop offset="0.277643" stop-opacity="0"/>
<stop offset="0.354289"/>
<stop offset="0.519606" stop-opacity="0"/>
<stop offset="0.637584"/>
<stop offset="0.847892" stop-opacity="0"/>
<stop offset="1" stop-opacity="0.876389"/>
</linearGradient>
<linearGradient id="paint21_linear_0_20" x1="1596.71" y1="-72.9018" x2="-26.0716" y2="478.206" gradientUnits="userSpaceOnUse">
<stop stop-opacity="0"/>
<stop offset="0.179816"/>
<stop offset="0.277643" stop-opacity="0"/>
<stop offset="0.354289"/>
<stop offset="0.519606" stop-opacity="0"/>
<stop offset="0.637584"/>
<stop offset="0.847892" stop-opacity="0"/>
<stop offset="1" stop-opacity="0.876389"/>
</linearGradient>
</defs>
</svg>
