<svg preserveAspectRatio="none" width="100%" height="100%" overflow="visible" style="display: block;" viewBox="0 0 84 20.3883" fill="none" xmlns="http://www.w3.org/2000/svg">
<g id="Vector" filter="url(#filter0_ii_0_16)">
<path d="M18.9289 4.11126C19.7942 4.11126 20.4957 4.82098 20.4957 5.69647V6.63805C20.4957 7.51354 21.1971 8.22327 22.0624 8.22327H23.0413C23.9066 8.22327 24.6081 8.93299 24.6081 9.80848V10.7301C24.6081 11.6056 25.3096 12.3153 26.1749 12.3153H27.115C27.9803 12.3153 28.6818 13.025 28.6818 13.9005V14.8913C28.6818 15.7668 27.9803 16.4765 27.115 16.4765H26.1358C25.2705 16.4765 24.569 15.7668 24.569 14.8913V13.9697C24.569 13.0942 23.8675 12.3845 23.0022 12.3845H22.0621C21.1968 12.3845 20.4953 11.6747 20.4953 10.7993V9.85768C20.4953 8.98219 19.7938 8.27246 18.9285 8.27246H17.9496C17.0843 8.27246 16.3828 7.56274 16.3828 6.68725V5.74642C16.3828 4.87093 15.6813 4.16121 14.816 4.16121H13.8368C12.9715 4.16121 12.27 4.87093 12.27 5.74642V6.68725C12.27 7.56274 11.5685 8.27246 10.7032 8.27246H9.72395C8.85864 8.27246 8.15716 8.98219 8.15716 9.85768V10.7993C8.15716 11.6747 7.45569 12.3845 6.59038 12.3845H5.67962C4.8143 12.3845 4.11283 13.0942 4.11283 13.9697V14.8913C4.11283 15.7668 3.41136 16.4765 2.54604 16.4765H1.56679C0.701474 16.4765 8.0629e-08 15.7668 4.28051e-08 14.8913L0 13.9005C-3.7824e-08 13.025 0.701474 12.3153 1.56679 12.3153H2.47755C3.34286 12.3153 4.04433 11.6056 4.04433 10.7301V9.80848C4.04433 8.93299 4.74581 8.22327 5.61112 8.22327H6.59038C7.45569 8.22327 8.15716 7.51354 8.15716 6.63805V5.69647C8.15716 4.82098 8.85864 4.11126 9.72395 4.11126H10.7032C11.5685 4.11126 12.27 3.40153 12.27 2.52604V1.58521C12.27 0.709725 12.9715 8.15771e-08 13.8368 4.33083e-08L14.816 0C15.6813 -3.82689e-08 16.3828 0.709724 16.3828 1.58521V2.52604C16.3828 3.40153 17.0843 4.11126 17.9496 4.11126H18.9289Z" fill="white" fill-opacity="0.24"/>
<path d="M18.9289 4.11126C19.7942 4.11126 20.4957 4.82098 20.4957 5.69647V6.63805C20.4957 7.51354 21.1971 8.22327 22.0624 8.22327H23.0413C23.9066 8.22327 24.6081 8.93299 24.6081 9.80848V10.7301C24.6081 11.6056 25.3096 12.3153 26.1749 12.3153H27.115C27.9803 12.3153 28.6818 13.025 28.6818 13.9005V14.8913C28.6818 15.7668 27.9803 16.4765 27.115 16.4765H26.1358C25.2705 16.4765 24.569 15.7668 24.569 14.8913V13.9697C24.569 13.0942 23.8675 12.3845 23.0022 12.3845H22.0621C21.1968 12.3845 20.4953 11.6747 20.4953 10.7993V9.85768C20.4953 8.98219 19.7938 8.27246 18.9285 8.27246H17.9496C17.0843 8.27246 16.3828 7.56274 16.3828 6.68725V5.74642C16.3828 4.87093 15.6813 4.16121 14.816 4.16121H13.8368C12.9715 4.16121 12.27 4.87093 12.27 5.74642V6.68725C12.27 7.56274 11.5685 8.27246 10.7032 8.27246H9.72395C8.85864 8.27246 8.15716 8.98219 8.15716 9.85768V10.7993C8.15716 11.6747 7.45569 12.3845 6.59038 12.3845H5.67962C4.8143 12.3845 4.11283 13.0942 4.11283 13.9697V14.8913C4.11283 15.7668 3.41136 16.4765 2.54604 16.4765H1.56679C0.701474 16.4765 8.0629e-08 15.7668 4.28051e-08 14.8913L0 13.9005C-3.7824e-08 13.025 0.701474 12.3153 1.56679 12.3153H2.47755C3.34286 12.3153 4.04433 11.6056 4.04433 10.7301V9.80848C4.04433 8.93299 4.74581 8.22327 5.61112 8.22327H6.59038C7.45569 8.22327 8.15716 7.51354 8.15716 6.63805V5.69647C8.15716 4.82098 8.85864 4.11126 9.72395 4.11126H10.7032C11.5685 4.11126 12.27 3.40153 12.27 2.52604V1.58521C12.27 0.709725 12.9715 8.15771e-08 13.8368 4.33083e-08L14.816 0C15.6813 -3.82689e-08 16.3828 0.709724 16.3828 1.58521V2.52604C16.3828 3.40153 17.0843 4.11126 17.9496 4.11126H18.9289Z" fill="url(#paint0_linear_0_16)" fill-opacity="0.66"/>
<path d="M18.9288 12.1355C19.7942 12.1355 20.4956 12.8452 20.4956 13.7207V14.6419C20.4956 15.5174 21.1971 16.2271 22.0624 16.2271H23.0381C23.9034 16.2271 24.6049 16.9369 24.6049 17.8124V18.8031C24.6049 19.6786 23.9034 20.3883 23.0381 20.3883H22.0588C21.1935 20.3883 20.4921 19.6786 20.4921 18.8031V17.8819C20.4921 17.0064 19.7906 16.2967 18.9253 16.2967H17.9496C17.0843 16.2967 16.3828 15.587 16.3828 14.7115V13.7703C16.3828 12.8948 15.6813 12.1851 14.816 12.1851H13.8368C12.9714 12.1851 12.27 12.8948 12.27 13.7703V14.7115C12.27 15.587 11.5685 16.2967 10.7032 16.2967H9.79242C8.92711 16.2967 8.22564 17.0064 8.22564 17.8819V18.8031C8.22564 19.6786 7.52416 20.3883 6.65885 20.3883H5.67959C4.81428 20.3883 4.11281 19.6786 4.11281 18.8031V17.8124C4.11281 16.9369 4.81428 16.2271 5.67959 16.2271H6.59035C7.45567 16.2271 8.15714 15.5174 8.15714 14.6419V13.7207C8.15714 12.8452 8.85861 12.1355 9.72392 12.1355H10.7032C11.5685 12.1355 12.27 11.4258 12.27 10.5503V9.60907C12.27 8.73358 12.9714 8.02385 13.8368 8.02385H14.816C15.6813 8.02385 16.3828 8.73358 16.3828 9.60907V10.5503C16.3828 11.4258 17.0843 12.1355 17.9496 12.1355H18.9288Z" fill="white" fill-opacity="0.24"/>
<path d="M18.9288 12.1355C19.7942 12.1355 20.4956 12.8452 20.4956 13.7207V14.6419C20.4956 15.5174 21.1971 16.2271 22.0624 16.2271H23.0381C23.9034 16.2271 24.6049 16.9369 24.6049 17.8124V18.8031C24.6049 19.6786 23.9034 20.3883 23.0381 20.3883H22.0588C21.1935 20.3883 20.4921 19.6786 20.4921 18.8031V17.8819C20.4921 17.0064 19.7906 16.2967 18.9253 16.2967H17.9496C17.0843 16.2967 16.3828 15.587 16.3828 14.7115V13.7703C16.3828 12.8948 15.6813 12.1851 14.816 12.1851H13.8368C12.9714 12.1851 12.27 12.8948 12.27 13.7703V14.7115C12.27 15.587 11.5685 16.2967 10.7032 16.2967H9.79242C8.92711 16.2967 8.22564 17.0064 8.22564 17.8819V18.8031C8.22564 19.6786 7.52416 20.3883 6.65885 20.3883H5.67959C4.81428 20.3883 4.11281 19.6786 4.11281 18.8031V17.8124C4.11281 16.9369 4.81428 16.2271 5.67959 16.2271H6.59035C7.45567 16.2271 8.15714 15.5174 8.15714 14.6419V13.7207C8.15714 12.8452 8.85861 12.1355 9.72392 12.1355H10.7032C11.5685 12.1355 12.27 11.4258 12.27 10.5503V9.60907C12.27 8.73358 12.9714 8.02385 13.8368 8.02385H14.816C15.6813 8.02385 16.3828 8.73358 16.3828 9.60907V10.5503C16.3828 11.4258 17.0843 12.1355 17.9496 12.1355H18.9288Z" fill="url(#paint1_linear_0_16)" fill-opacity="0.66"/>
<path d="M35.4187 16.3107L40.2539 5.82011H42.3282L47.1353 16.3107H45.1592L43.8278 13.4355H38.6702L37.3388 16.3107H35.4187ZM39.3009 11.9072H43.2672L41.3191 7.62034H41.249L39.3009 11.9072Z" fill="white" fill-opacity="0.24"/>
<path d="M35.4187 16.3107L40.2539 5.82011H42.3282L47.1353 16.3107H45.1592L43.8278 13.4355H38.6702L37.3388 16.3107H35.4187ZM39.3009 11.9072H43.2672L41.3191 7.62034H41.249L39.3009 11.9072Z" fill="url(#paint2_linear_0_16)" fill-opacity="0.66"/>
<path d="M48.3327 16.3107V5.43157H50.2388V16.3107H48.3327Z" fill="white" fill-opacity="0.24"/>
<path d="M48.3327 16.3107V5.43157H50.2388V16.3107H48.3327Z" fill="url(#paint3_linear_0_16)" fill-opacity="0.66"/>
<path d="M54.7396 16.3107C54.2257 16.3107 53.824 16.1898 53.5343 15.948C53.254 15.7063 53.1139 15.3393 53.1139 14.8472V9.91273H51.6002V8.53989H53.1279V6.20865H55.0059V8.53989H57.0941V9.91273H55.0199V14.9249H57.3044V16.3107H54.7396Z" fill="white" fill-opacity="0.24"/>
<path d="M54.7396 16.3107C54.2257 16.3107 53.824 16.1898 53.5343 15.948C53.254 15.7063 53.1139 15.3393 53.1139 14.8472V9.91273H51.6002V8.53989H53.1279V6.20865H55.0059V8.53989H57.0941V9.91273H55.0199V14.9249H57.3044V16.3107H54.7396Z" fill="url(#paint4_linear_0_16)" fill-opacity="0.66"/>
<path d="M62.1652 16.4531C61.044 16.4531 60.1704 16.1725 59.5444 15.6113C58.9277 15.0501 58.6194 14.286 58.6194 13.3189V8.53989H60.5254V12.9692C60.5254 13.6082 60.7029 14.0917 61.058 14.4198C61.413 14.7393 61.9409 14.899 62.6417 14.899C63.3611 14.899 63.9171 14.7263 64.3095 14.3809C64.7112 14.0356 64.9121 13.552 64.9121 12.9304V8.53989H66.8182V14.5363H67.7852V16.3107H65.8091V15.0803H65.2205C64.9028 15.5293 64.4964 15.8703 64.0012 16.1035C63.506 16.3366 62.894 16.4531 62.1652 16.4531Z" fill="white" fill-opacity="0.24"/>
<path d="M62.1652 16.4531C61.044 16.4531 60.1704 16.1725 59.5444 15.6113C58.9277 15.0501 58.6194 14.286 58.6194 13.3189V8.53989H60.5254V12.9692C60.5254 13.6082 60.7029 14.0917 61.058 14.4198C61.413 14.7393 61.9409 14.899 62.6417 14.899C63.3611 14.899 63.9171 14.7263 64.3095 14.3809C64.7112 14.0356 64.9121 13.552 64.9121 12.9304V8.53989H66.8182V14.5363H67.7852V16.3107H65.8091V15.0803H65.2205C64.9028 15.5293 64.4964 15.8703 64.0012 16.1035C63.506 16.3366 62.894 16.4531 62.1652 16.4531Z" fill="url(#paint5_linear_0_16)" fill-opacity="0.66"/>
<path d="M69.7049 16.3107V10.3142H68.7378V8.53989H70.7279V10.0293H71.3166C71.5408 9.51987 71.8959 9.13133 72.3817 8.86367C72.8769 8.59601 73.4422 8.46218 74.0776 8.46218H74.7783V9.97748H73.9935C73.1993 9.97748 72.5966 10.189 72.1855 10.6121C71.7838 11.0352 71.5829 11.6007 71.5829 12.3087V16.3107H69.7049Z" fill="white" fill-opacity="0.24"/>
<path d="M69.7049 16.3107V10.3142H68.7378V8.53989H70.7279V10.0293H71.3166C71.5408 9.51987 71.8959 9.13133 72.3817 8.86367C72.8769 8.59601 73.4422 8.46218 74.0776 8.46218H74.7783V9.97748H73.9935C73.1993 9.97748 72.5966 10.189 72.1855 10.6121C71.7838 11.0352 71.5829 11.6007 71.5829 12.3087V16.3107H69.7049Z" fill="url(#paint6_linear_0_16)" fill-opacity="0.66"/>
<path d="M78.4641 16.4531C77.5017 16.4531 76.7402 16.233 76.1796 15.7926C75.6283 15.3523 75.3527 14.7738 75.3527 14.0571C75.3527 13.306 75.633 12.7232 76.1936 12.3087C76.7542 11.8943 77.5577 11.6871 78.6042 11.6871H81.2671V11.3633C81.2671 10.3272 80.6317 9.80912 79.361 9.80912C78.2865 9.80912 77.6418 10.1674 77.4269 10.8841H75.5209C75.6797 10.0811 76.0908 9.46375 76.7542 9.03204C77.4269 8.60033 78.3005 8.38447 79.375 8.38447C80.5803 8.38447 81.5007 8.6435 82.136 9.16155C82.7714 9.67097 83.089 10.4135 83.089 11.3892V14.5363H84V16.3107H82.0239V15.0803H81.4352C81.1456 15.512 80.7532 15.8487 80.258 16.0905C79.7628 16.3323 79.1648 16.4531 78.4641 16.4531ZM78.7443 15.0803C79.2209 15.0803 79.6507 14.994 80.0337 14.8213C80.4168 14.6486 80.7158 14.4198 80.9307 14.1349C81.1549 13.8413 81.2671 13.5175 81.2671 13.1635V12.9174H78.7023C77.6745 12.9174 77.1606 13.2714 77.1606 13.9794C77.1606 14.3248 77.3008 14.5968 77.5811 14.7954C77.8614 14.9853 78.2491 15.0803 78.7443 15.0803Z" fill="white" fill-opacity="0.24"/>
<path d="M78.4641 16.4531C77.5017 16.4531 76.7402 16.233 76.1796 15.7926C75.6283 15.3523 75.3527 14.7738 75.3527 14.0571C75.3527 13.306 75.633 12.7232 76.1936 12.3087C76.7542 11.8943 77.5577 11.6871 78.6042 11.6871H81.2671V11.3633C81.2671 10.3272 80.6317 9.80912 79.361 9.80912C78.2865 9.80912 77.6418 10.1674 77.4269 10.8841H75.5209C75.6797 10.0811 76.0908 9.46375 76.7542 9.03204C77.4269 8.60033 78.3005 8.38447 79.375 8.38447C80.5803 8.38447 81.5007 8.6435 82.136 9.16155C82.7714 9.67097 83.089 10.4135 83.089 11.3892V14.5363H84V16.3107H82.0239V15.0803H81.4352C81.1456 15.512 80.7532 15.8487 80.258 16.0905C79.7628 16.3323 79.1648 16.4531 78.4641 16.4531ZM78.7443 15.0803C79.2209 15.0803 79.6507 14.994 80.0337 14.8213C80.4168 14.6486 80.7158 14.4198 80.9307 14.1349C81.1549 13.8413 81.2671 13.5175 81.2671 13.1635V12.9174H78.7023C77.6745 12.9174 77.1606 13.2714 77.1606 13.9794C77.1606 14.3248 77.3008 14.5968 77.5811 14.7954C77.8614 14.9853 78.2491 15.0803 78.7443 15.0803Z" fill="url(#paint7_linear_0_16)" fill-opacity="0.66"/>
</g>
<defs>
<filter id="filter0_ii_0_16" x="0" y="0" width="84" height="20.3883" filterUnits="userSpaceOnUse" color-interpolation-filters="sRGB">
<feFlood flood-opacity="0" result="BackgroundImageFix"/>
<feBlend mode="normal" in="SourceGraphic" in2="BackgroundImageFix" result="shape"/>
<feColorMatrix in="SourceAlpha" type="matrix" values="0 0 0 0 0 0 0 0 0 0 0 0 0 0 0 0 0 0 127 0" result="hardAlpha"/>
<feOffset dy="0.5"/>
<feComposite in2="hardAlpha" operator="arithmetic" k2="-1" k3="1"/>
<feColorMatrix type="matrix" values="0 0 0 0 0 0 0 0 0 0 0 0 0 0 0 0 0 0 0.45 0"/>
<feBlend mode="normal" in2="shape" result="effect1_innerShadow_0_16"/>
<feColorMatrix in="SourceAlpha" type="matrix" values="0 0 0 0 0 0 0 0 0 0 0 0 0 0 0 0 0 0 127 0" result="hardAlpha"/>
<feOffset dy="-0.5"/>
<feComposite in2="hardAlpha" operator="arithmetic" k2="-1" k3="1"/>
<feColorMatrix type="matrix" values="0 0 0 0 0.364706 0 0 0 0 1 0 0 0 0 0.792157 0 0 0 1 0"/>
<feBlend mode="normal" in2="effect1_innerShadow_0_16" result="effect2_innerShadow_0_16"/>
</filter>
<linearGradient id="paint0_linear_0_16" x1="264.544" y1="-4.18689" x2="111.533" y2="145.718" gradientUnits="userSpaceOnUse">
<stop stop-opacity="0"/>
<stop offset="0.179816"/>
<stop offset="0.277643" stop-opacity="0"/>
<stop offset="0.354289"/>
<stop offset="0.519606" stop-opacity="0"/>
<stop offset="0.637584"/>
<stop offset="0.847892" stop-opacity="0"/>
<stop offset="1" stop-opacity="0.876389"/>
</linearGradient>
<linearGradient id="paint1_linear_0_16" x1="264.544" y1="-4.18689" x2="111.533" y2="145.718" gradientUnits="userSpaceOnUse">
<stop stop-opacity="0"/>
<stop offset="0.179816"/>
<stop offset="0.277643" stop-opacity="0"/>
<stop offset="0.354289"/>
<stop offset="0.519606" stop-opacity="0"/>
<stop offset="0.637584"/>
<stop offset="0.847892" stop-opacity="0"/>
<stop offset="1" stop-opacity="0.876389"/>
</linearGradient>
<linearGradient id="paint2_linear_0_16" x1="264.544" y1="-4.18689" x2="111.533" y2="145.718" gradientUnits="userSpaceOnUse">
<stop stop-opacity="0"/>
<stop offset="0.179816"/>
<stop offset="0.277643" stop-opacity="0"/>
<stop offset="0.354289"/>
<stop offset="0.519606" stop-opacity="0"/>
<stop offset="0.637584"/>
<stop offset="0.847892" stop-opacity="0"/>
<stop offset="1" stop-opacity="0.876389"/>
</linearGradient>
<linearGradient id="paint3_linear_0_16" x1="264.544" y1="-4.18689" x2="111.533" y2="145.718" gradientUnits="userSpaceOnUse">
<stop stop-opacity="0"/>
<stop offset="0.179816"/>
<stop offset="0.277643" stop-opacity="0"/>
<stop offset="0.354289"/>
<stop offset="0.519606" stop-opacity="0"/>
<stop offset="0.637584"/>
<stop offset="0.847892" stop-opacity="0"/>
<stop offset="1" stop-opacity="0.876389"/>
</linearGradient>
<linearGradient id="paint4_linear_0_16" x1="264.544" y1="-4.18689" x2="111.533" y2="145.718" gradientUnits="userSpaceOnUse">
<stop stop-opacity="0"/>
<stop offset="0.179816"/>
<stop offset="0.277643" stop-opacity="0"/>
<stop offset="0.354289"/>
<stop offset="0.519606" stop-opacity="0"/>
<stop offset="0.637584"/>
<stop offset="0.847892" stop-opacity="0"/>
<stop offset="1" stop-opacity="0.876389"/>
</linearGradient>
<linearGradient id="paint5_linear_0_16" x1="264.544" y1="-4.18689" x2="111.533" y2="145.718" gradientUnits="userSpaceOnUse">
<stop stop-opacity="0"/>
<stop offset="0.179816"/>
<stop offset="0.277643" stop-opacity="0"/>
<stop offset="0.354289"/>
<stop offset="0.519606" stop-opacity="0"/>
<stop offset="0.637584"/>
<stop offset="0.847892" stop-opacity="0"/>
<stop offset="1" stop-opacity="0.876389"/>
</linearGradient>
<linearGradient id="paint6_linear_0_16" x1="264.544" y1="-4.18689" x2="111.533" y2="145.718" gradientUnits="userSpaceOnUse">
<stop stop-opacity="0"/>
<stop offset="0.179816"/>
<stop offset="0.277643" stop-opacity="0"/>
<stop offset="0.354289"/>
<stop offset="0.519606" stop-opacity="0"/>
<stop offset="0.637584"/>
<stop offset="0.847892" stop-opacity="0"/>
<stop offset="1" stop-opacity="0.876389"/>
</linearGradient>
<linearGradient id="paint7_linear_0_16" x1="264.544" y1="-4.18689" x2="111.533" y2="145.718" gradientUnits="userSpaceOnUse">
<stop stop-opacity="0"/>
<stop offset="0.179816"/>
<stop offset="0.277643" stop-opacity="0"/>
<stop offset="0.354289"/>
<stop offset="0.519606" stop-opacity="0"/>
<stop offset="0.637584"/>
<stop offset="0.847892" stop-opacity="0"/>
<stop offset="1" stop-opacity="0.876389"/>
</linearGradient>
</defs>
</svg>
